<svg width="55" height="84" fill="none" xmlns="http://www.w3.org/2000/svg"><g clip-path="url('#clip0_45_943')"><path fill-rule="evenodd" clip-rule="evenodd" d="M28.23 83.306S.95 48.32.95 26.853a26.842 26.842 0 0 1 53.683 0c0 21.647-26.403 56.453-26.403 56.453Z" fill="url('#paint0_linear_45_943')"/><g filter="url('#filter0_f_45_943')"><path fill-rule="evenodd" clip-rule="evenodd" d="m27.63 10.37 4.905 11.529 12.46 1.017c-3.143 2.8-6.288 5.6-9.436 8.4.94 4.07 1.885 8.14 2.832 12.21-3.622-2.137-7.24-4.274-10.857-6.411-3.518 2.16-7.04 4.32-10.57 6.48.95-4.075 1.894-8.15 2.833-12.227-3.143-2.78-6.289-5.559-9.437-8.34l12.46-1.098 4.81-11.56Z" fill="#fff"/></g><path fill-rule="evenodd" clip-rule="evenodd" d="m27.63 10.37 4.905 11.529 12.46 1.017c-3.143 2.8-6.288 5.6-9.436 8.4.94 4.07 1.885 8.14 2.832 12.21-3.622-2.137-7.24-4.274-10.857-6.411-3.518 2.16-7.04 4.32-10.57 6.48.95-4.075 1.894-8.15 2.833-12.227-3.143-2.78-6.289-5.559-9.437-8.34l12.46-1.098 4.81-11.56Z" fill="#fff"/></g><defs><linearGradient id="paint0_linear_45_943" x1="27.792" y1="83.306" x2="27.792" y2="0" gradientUnits="userSpaceOnUse"><stop stop-color="#FF3F00"/><stop offset="1" stop-color="#FF5E00"/></linearGradient><clipPath id="clip0_45_943"><path fill="#fff" transform="translate(.788)" d="M0 0h53.699v83.307H0z"/></clipPath><filter id="filter0_f_45_943" x="5.476" y="5.485" width="44.404" height="42.994" filterUnits="userSpaceOnUse" color-interpolation-filters="sRGB"><feFlood flood-opacity="0" result="BackgroundImageFix"/><feBlend in="SourceGraphic" in2="BackgroundImageFix" result="shape"/><feGaussianBlur stdDeviation="2.442" result="effect1_foregroundBlur_45_943"/></filter></defs></svg>