<svg width="480" height="480" fill="none" xmlns="http://www.w3.org/2000/svg"><g clip-path="url('#clip0_94_526')"><g filter="url('#filter0_i_94_526')"><path d="M315.099 467.866c125.706-41.329 194.107-176.737 152.778-302.443C426.549 39.717 291.14-28.684 165.435 12.645 39.729 53.974-28.672 189.382 12.657 315.088c41.328 125.706 176.737 194.107 302.442 152.778Z" fill="url('#paint0_linear_94_526')"/></g><path d="m165.581 13.156 74.742 225.365 72.27-226.044c-64.545-20.661-124.902-8.156-147.012.679Z" fill="url('#paint1_linear_94_526')"/><path d="m1.353 239.22 237.435.467L47.261 99.557C7.224 154.24-.027 215.45 1.353 239.22Z" fill="url('#paint2_linear_94_526')"/><path d="m433.827 379.859-192.993-138.31 74.493 225.321c64.354-21.25 105.814-66.862 118.5-87.011Z" fill="url('#paint3_linear_94_526')"/><path d="M432.8 98.931 241.539 239.625l237.313-1.079c-.284-67.771-30.82-121.315-46.052-139.615Z" fill="url('#paint4_linear_94_526')"/><path d="m166.84 467.477 72.653-226.047L47.755 381.27c39.915 54.77 96.022 80.292 119.085 86.207Z" fill="url('#paint5_linear_94_526')"/><path opacity=".4" d="M240.024 479.375c132.314 0 239.575-107.262 239.575-239.575C479.599 107.486 372.646.938 240.024.225 107.402 1.65.449 107.486.449 239.8c0 132.313 107.262 239.575 239.575 239.575Z" fill="url('#paint6_radial_94_526')"/><path d="M320.243 151.437a1.218 1.218 0 0 0-.358-.239.896.896 0 0 0-.441-.058 2.313 2.313 0 0 0-.614.17 7.085 7.085 0 0 0-.892.426c-.412.225-.827.426-1.244.602a5.716 5.716 0 0 1-1.239.36c-.408.064-.801.05-1.179-.041-.381-.095-.738-.297-1.071-.607a2.368 2.368 0 0 1-.662-1.016 2.673 2.673 0 0 1-.103-1.208c.057-.429.199-.861.427-1.297.223-.438.527-.863.909-1.274.506-.544 1.047-.934 1.623-1.172.576-.244 1.147-.322 1.712-.234.564.082 1.081.341 1.55.777l-1.656 1.779a1.382 1.382 0 0 0-.603-.343 1.088 1.088 0 0 0-.654.029c-.224.077-.444.231-.659.462-.208.224-.35.444-.424.661-.075.216-.09.417-.047.602a.868.868 0 0 0 .263.464.743.743 0 0 0 .391.193c.148.017.315.005.501-.038.189-.046.396-.119.623-.22a9.81 9.81 0 0 0 .74-.376 9.609 9.609 0 0 1 1.4-.657 4.43 4.43 0 0 1 1.251-.291c.393-.034.764.01 1.113.132.353.119.685.324.998.615.333.31.569.649.707 1.019.138.369.185.758.14 1.167-.048.406-.182.82-.403 1.242-.222.422-.525.84-.911 1.254a6.143 6.143 0 0 1-1.191.994c-.44.275-.899.469-1.378.582a3.18 3.18 0 0 1-1.449-.007c-.484-.121-.945-.385-1.383-.793l1.669-1.794c.218.202.428.344.631.426.204.081.403.108.6.081.192-.03.385-.107.577-.232.19-.129.382-.298.578-.509.212-.228.351-.441.416-.641a.953.953 0 0 0 .019-.552.98.98 0 0 0-.277-.438Zm7.873-7.265 1.376 1.28-3.681 3.956-1.376-1.281 3.681-3.955Zm-9.134-2.307 7.422 6.906-1.665 1.789-7.422-6.906 1.665-1.789Zm5.56-.067 1.331 1.238-3.207 3.446-1.33-1.238 3.206-3.446Zm-2.458-3.267 1.382 1.285-3.695 3.971-1.382-1.285 3.695-3.971Zm1.494-1.606 1.357-1.458 6.705 3.148-3.622-6.461 1.356-1.458 5.075 9.429-1.101 1.183-9.77-4.383Zm-.825.887 1.404-1.509 5.95 5.013 1.733 1.613-1.665 1.789-7.422-6.906Zm6.043-6.494 1.408-1.514 7.423 6.906-1.67 1.794-1.733-1.613-5.428-5.573Zm14-8.117 3.049 2.837c.022.255-.009.588-.093.998-.084.404-.253.855-.507 1.354-.255.498-.631 1.014-1.127 1.548a5.023 5.023 0 0 1-1.482 1.123 3.925 3.925 0 0 1-1.661.385 4.406 4.406 0 0 1-1.749-.391c-.591-.264-1.175-.665-1.753-1.203l-.413-.384c-.577-.538-1.018-1.093-1.321-1.667-.303-.574-.476-1.144-.52-1.711a3.884 3.884 0 0 1 .231-1.658 4.529 4.529 0 0 1 .946-1.498c.636-.683 1.262-1.137 1.878-1.363.612-.229 1.212-.277 1.798-.144.583.13 1.144.402 1.685.817l-1.599 1.718a2.403 2.403 0 0 0-.802-.385 1.236 1.236 0 0 0-.763.032c-.253.088-.507.27-.763.545a1.717 1.717 0 0 0-.408.714c-.07.259-.068.536.005.833.07.293.212.603.428.93.219.324.515.66.889 1.008l.423.393c.37.345.723.616 1.059.815.338.194.66.316.964.364.303.041.595.008.873-.101.278-.115.544-.308.797-.58.177-.19.314-.368.409-.532.093-.168.157-.318.191-.45.035-.14.052-.254.052-.342l-1.152-1.072-1.157 1.244-1.229-1.144 2.822-3.033Zm2.003-5.954 4.178 7.264-1.788 1.922-4.885-9.634 1.134-1.218 1.361 1.666Zm7.257 3.956-7.551-3.64-1.778-1.217 1.147-1.234 9.975 4.164-1.793 1.927Zm-2.835-2.505 1.382 1.286-3.544 3.808-1.381-1.286 3.543-3.808Zm3.481-13.073 7.422 6.906-1.66 1.785-7.062-1.673 4.619 4.298-1.665 1.789-7.422-6.906 1.665-1.789 7.061 1.672-4.619-4.298 1.661-1.784Zm8.652-3.391 1.377 1.281-3.544 3.808-1.376-1.281 3.543-3.808Zm-5.935.47 7.423 6.906-1.665 1.79-7.422-6.906 1.664-1.79Zm4.108-4.414 7.422 6.906-1.66 1.784-7.422-6.906 1.66-1.784Zm10.465-4.102.3.28c.568.528 1.003 1.082 1.307 1.662.303.574.48 1.154.531 1.74a4.045 4.045 0 0 1-.225 1.703 4.533 4.533 0 0 1-.964 1.537c-.446.48-.937.841-1.474 1.083a4.113 4.113 0 0 1-1.687.352 4.654 4.654 0 0 1-1.778-.399c-.598-.265-1.18-.661-1.748-1.189l-.3-.28c-.568-.528-1.005-1.08-1.312-1.657a4.6 4.6 0 0 1-.53-1.74 3.924 3.924 0 0 1 .224-1.703c.2-.555.523-1.073.969-1.552a4.456 4.456 0 0 1 1.469-1.068 3.911 3.911 0 0 1 1.687-.351 4.538 4.538 0 0 1 1.778.399c.601.26 1.185.655 1.753 1.183Zm-1.388 2.095-.311-.29a5.892 5.892 0 0 0-1.059-.804 2.924 2.924 0 0 0-.964-.384 1.672 1.672 0 0 0-1.563.524 1.72 1.72 0 0 0-.431.76 1.62 1.62 0 0 0 .016.842c.079.296.232.606.457.93.225.316.521.645.888.987l.311.29c.363.338.713.61 1.049.814.335.198.655.328.96.389.307.058.593.044.856-.041.266-.088.51-.251.731-.49.212-.227.351-.475.417-.743a1.671 1.671 0 0 0-.026-.852 3.01 3.01 0 0 0-.453-.934 5.939 5.939 0 0 0-.878-.998Zm7.695-5.091a1.217 1.217 0 0 0-.359-.238.887.887 0 0 0-.44-.058 2.305 2.305 0 0 0-.615.17c-.243.09-.54.232-.891.426-.413.225-.827.425-1.245.601a5.725 5.725 0 0 1-1.238.36c-.409.064-.802.05-1.179-.041-.381-.095-.738-.297-1.072-.607a2.37 2.37 0 0 1-.662-1.016 2.675 2.675 0 0 1-.102-1.208 3.87 3.87 0 0 1 .426-1.296c.224-.439.527-.863.91-1.275.506-.543 1.047-.934 1.623-1.172.576-.244 1.146-.322 1.711-.234.564.082 1.081.34 1.55.777l-1.655 1.78a1.382 1.382 0 0 0-.604-.344 1.088 1.088 0 0 0-.654.029c-.224.077-.443.231-.658.462a1.894 1.894 0 0 0-.425.66c-.074.217-.09.418-.047.604a.866.866 0 0 0 .263.463.735.735 0 0 0 .391.193c.149.018.316.005.501-.038.189-.046.397-.12.623-.22.23-.103.476-.228.74-.376.493-.277.96-.496 1.4-.656a4.412 4.412 0 0 1 1.251-.292 2.653 2.653 0 0 1 2.111.747c.333.31.569.65.707 1.02.138.369.185.758.141 1.167-.048.405-.183.82-.404 1.241-.221.422-.525.84-.911 1.255-.354.38-.751.712-1.191.993-.44.276-.899.47-1.378.582-.482.11-.965.107-1.449-.007-.484-.12-.945-.385-1.383-.792l1.67-1.795c.217.203.427.344.631.426.203.081.403.108.599.082a1.48 1.48 0 0 0 .578-.233c.189-.128.381-.298.578-.509.211-.227.35-.44.415-.64a.947.947 0 0 0 .019-.553.99.99 0 0 0-.276-.438Z" fill="#fff"/><path d="M159.464 332.061c.128.092.256.156.385.192a.897.897 0 0 0 .444.003c.164-.037.36-.118.589-.245a7.14 7.14 0 0 0 .831-.534c.382-.275.768-.525 1.16-.752a5.71 5.71 0 0 1 1.185-.511 3.013 3.013 0 0 1 1.175-.106 2.44 2.44 0 0 1 1.138.469c.354.256.615.564.783.926.173.364.257.76.253 1.186a3.912 3.912 0 0 1-.262 1.339 5.664 5.664 0 0 1-.745 1.378c-.434.602-.922 1.057-1.464 1.365-.541.313-1.098.462-1.669.445-.57-.011-1.115-.204-1.635-.578l1.421-1.971c.207.149.421.237.642.265.218.031.433-.006.646-.11.212-.104.411-.284.595-.54a1.91 1.91 0 0 0 .339-.709 1.08 1.08 0 0 0-.028-.604.875.875 0 0 0-.318-.427.741.741 0 0 0-.413-.143 1.486 1.486 0 0 0-.492.1 3.772 3.772 0 0 0-.591.295 9.895 9.895 0 0 0-.687.466 9.608 9.608 0 0 1-1.308.825 4.393 4.393 0 0 1-1.205.445 2.634 2.634 0 0 1-1.121.007 2.763 2.763 0 0 1-1.066-.485 2.67 2.67 0 0 1-.828-.924 2.513 2.513 0 0 1-.285-1.141 3.574 3.574 0 0 1 .246-1.281c.167-.447.416-.899.748-1.359a6.177 6.177 0 0 1 1.058-1.134 4.536 4.536 0 0 1 1.295-.748 3.166 3.166 0 0 1 1.438-.174c.495.06.986.265 1.472.615l-1.434 1.988a2.08 2.08 0 0 0-.679-.344 1.173 1.173 0 0 0-.605-.007 1.483 1.483 0 0 0-.544.303 3.41 3.41 0 0 0-.51.577c-.182.252-.293.481-.333.687a.962.962 0 0 0 .049.551.99.99 0 0 0 .33.4Zm-6.908 8.188-1.525-1.1 3.16-4.383 1.525 1.1-3.16 4.383Zm9.349 1.153-8.223-5.93 1.429-1.982 8.224 5.929-1.43 1.983Zm-5.508.758-1.474-1.063 2.753-3.818 1.474 1.063-2.753 3.818Zm2.845 2.935-1.531-1.103 3.173-4.4 1.531 1.104-3.173 4.399Zm-1.283 1.78-1.164 1.615-7.045-2.29 4.397 5.961-1.164 1.615-6.208-8.725.945-1.31 10.239 3.134Zm.709-.983-1.206 1.672-6.527-4.235-1.92-1.384 1.429-1.983 8.224 5.93Zm-5.188 7.195-1.21 1.678-8.223-5.93 1.433-1.988 1.92 1.385 6.08 4.855Zm-12.883 9.795-3.377-2.436c-.054-.25-.065-.584-.033-1.002.033-.411.145-.88.336-1.406.19-.526.499-1.085.925-1.676.394-.546.837-.979 1.331-1.298a3.907 3.907 0 0 1 1.6-.589 4.389 4.389 0 0 1 1.784.17c.619.189 1.248.514 1.889.976l.457.329c.64.462 1.146.959 1.518 1.49.373.532.615 1.076.729 1.633a3.857 3.857 0 0 1-.023 1.674 4.503 4.503 0 0 1-.753 1.604c-.545.757-1.11 1.285-1.693 1.586-.579.304-1.168.426-1.766.366-.594-.056-1.185-.257-1.773-.6l1.372-1.904c.298.158.58.252.844.283.265.036.516-.006.753-.127.24-.119.47-.331.69-.636.171-.237.276-.49.315-.759a1.65 1.65 0 0 0-.108-.826 2.988 2.988 0 0 0-.54-.87 6.037 6.037 0 0 0-1.007-.889l-.469-.338a6.298 6.298 0 0 0-1.152-.676 2.86 2.86 0 0 0-1.002-.242 1.73 1.73 0 0 0-.854.208 2.31 2.31 0 0 0-.719.675 3.11 3.11 0 0 0-.34.579 2.01 2.01 0 0 0-.133.471c-.017.142-.02.257-.009.345l1.276.921.994-1.378 1.361.981-2.423 3.361Zm-1.246 6.157-5.05-6.688 1.535-2.129 6.045 8.951-.973 1.35-1.557-1.484Zm-7.693-3.022 7.945 2.672 1.916.987-.986 1.366-10.414-2.891 1.539-2.134Zm3.124 2.132-1.531-1.104 3.043-4.219 1.53 1.104-3.042 4.219Zm-1.828 13.404-8.223-5.929 1.425-1.977 7.215.781-5.117-3.69 1.429-1.982 8.223 5.929-1.429 1.983-7.214-.781 5.117 3.689-1.426 1.977Zm-8.163 4.441-1.525-1.1 3.042-4.219 1.525 1.1-3.042 4.219Zm5.83-1.204-8.224-5.93 1.43-1.982 8.223 5.929-1.429 1.983Zm-3.527 4.891-8.223-5.93 1.425-1.977 8.223 5.93-1.425 1.977Zm-9.873 5.371-.334-.24c-.628-.454-1.129-.95-1.503-1.488a4.536 4.536 0 0 1-.742-1.66 4.041 4.041 0 0 1 .01-1.717c.131-.57.386-1.119.766-1.646.383-.531.826-.95 1.328-1.258a4.103 4.103 0 0 1 1.63-.558 4.617 4.617 0 0 1 1.814.175c.626.188 1.253.508 1.882.962l.333.24c.629.453 1.131.947 1.507 1.482.373.538.621 1.091.743 1.66.123.575.12 1.148-.011 1.717a4.511 4.511 0 0 1-.768 1.661c-.38.527-.822.941-1.325 1.242a3.908 3.908 0 0 1-1.63.559 4.537 4.537 0 0 1-1.814-.175c-.629-.184-1.257-.503-1.886-.956Zm1.116-2.251.345.248c.406.294.79.516 1.15.667.362.157.697.244 1.005.261a1.664 1.664 0 0 0 1.486-.715c.19-.263.301-.532.333-.807a1.633 1.633 0 0 0-.12-.833 3.029 3.029 0 0 0-.57-.866 6.606 6.606 0 0 0-1.004-.87l-.344-.248a6.744 6.744 0 0 0-1.142-.678 3.12 3.12 0 0 0-1.001-.266 1.71 1.71 0 0 0-.845.146 1.753 1.753 0 0 0-.664.577 1.672 1.672 0 0 0-.321.79c-.032.275.012.555.131.842.117.29.306.58.566.871.26.297.592.59.995.881Zm-7.002 6.008c.128.092.257.156.386.192.132.038.28.039.444.003.164-.037.36-.118.589-.245a7.14 7.14 0 0 0 .831-.534c.381-.275.768-.525 1.16-.752a5.726 5.726 0 0 1 1.184-.511 3.014 3.014 0 0 1 1.175-.106c.39.047.77.203 1.139.469.354.256.615.564.783.926.172.364.256.76.252 1.186-.003.433-.09.879-.262 1.339a5.625 5.625 0 0 1-.744 1.378c-.434.602-.923 1.057-1.465 1.365-.541.313-1.097.462-1.668.445-.571-.011-1.116-.204-1.635-.578l1.421-1.972c.207.15.421.238.642.266a1.09 1.09 0 0 0 .645-.11c.213-.104.411-.285.596-.541a1.9 1.9 0 0 0 .339-.708 1.08 1.08 0 0 0-.028-.604.871.871 0 0 0-.319-.427.735.735 0 0 0-.412-.143 1.456 1.456 0 0 0-.492.1 3.772 3.772 0 0 0-.591.295c-.215.132-.444.287-.688.466a9.54 9.54 0 0 1-1.307.825 4.404 4.404 0 0 1-1.205.445 2.65 2.65 0 0 1-1.121.007 2.774 2.774 0 0 1-1.067-.485 2.67 2.67 0 0 1-.828-.924 2.5 2.5 0 0 1-.284-1.141 3.583 3.583 0 0 1 .246-1.282c.167-.446.416-.898.747-1.358a6.211 6.211 0 0 1 1.058-1.134 4.554 4.554 0 0 1 1.296-.748 3.164 3.164 0 0 1 1.438-.174c.495.06.986.264 1.471.615l-1.433 1.988a2.09 2.09 0 0 0-.679-.344 1.173 1.173 0 0 0-.605-.007 1.487 1.487 0 0 0-.545.303 3.53 3.53 0 0 0-.51.576c-.182.253-.292.482-.332.688a.95.95 0 0 0 .049.55.992.992 0 0 0 .329.401ZM179.569 385.205l-9.543-1.144 4.921 8.256-3.884 5.977-6.846-13.078-15.017-.897 3.923-6.037 9.746 1.127-4.987-8.448 3.933-6.052 6.908 13.374 14.74.93-3.894 5.992Z" fill="#000"/><path d="m329.36 105.281-9.263-2.563 3.626 8.901-4.737 5.327-4.806-13.957-14.712-3.14 4.784-5.379 9.466 2.576-3.663-9.1 4.796-5.394 4.824 14.259 14.434 3.13-4.749 5.34Z" fill="#fff"/><path fill-rule="evenodd" clip-rule="evenodd" d="M77.165 195.306a11.047 11.047 0 0 0-4.135-1.013 10.917 10.917 0 0 0-4.933.928l-1.102-4.488a15.615 15.615 0 0 1 12.07.46 15.613 15.613 0 0 1 8.092 8.66c1.393 3.685 1.371 7.872-.392 11.696l3.321 1.534-4.365 2.189-4.365 2.19-1.164-4.743-1.164-4.743 3.552 1.641a10.638 10.638 0 0 0 .274-8.226 11.013 11.013 0 0 0-5.689-6.085Zm-13.184-2.683-4.365 2.19-4.365 2.189 3.322 1.534v.003c-1.767 3.825-1.789 8.017-.396 11.702a15.608 15.608 0 0 0 8.093 8.66 15.61 15.61 0 0 0 12.072.459l-1.102-4.486a10.976 10.976 0 0 1-7.051.621c-2.096-.512-4-1.626-5.47-3.199a10.88 10.88 0 0 1-2.79-5.642c-.35-2.104-.06-4.256.829-6.183l.001-.002 3.55 1.639-1.164-4.742-1.164-4.743Z" fill="#000"/><path fill-rule="evenodd" clip-rule="evenodd" d="M409.65 259.557a11.025 11.025 0 0 0-4.167-.873 10.885 10.885 0 0 0-4.899 1.093l-1.252-4.448.226-.092a15.615 15.615 0 0 1 11.852.145 15.613 15.613 0 0 1 8.379 8.382c1.517 3.636 1.636 7.822.002 11.703l3.372 1.421-4.29 2.335-4.288 2.336-1.323-4.701-1.323-4.701 3.605 1.52a10.64 10.64 0 0 0-.003-8.23 11.006 11.006 0 0 0-5.891-5.89Zm-13.267-2.238-4.289 2.336-4.289 2.335 3.373 1.421-.001.003c-1.637 3.883-1.517 8.073-.001 11.709a15.612 15.612 0 0 0 8.379 8.383 15.615 15.615 0 0 0 11.852.145l.229-.093-1.252-4.447a10.983 10.983 0 0 1-7.027.858 11.094 11.094 0 0 1-5.574-3.013 10.875 10.875 0 0 1-2.978-5.544 10.603 10.603 0 0 1 .62-6.208l.001-.002 3.604 1.519-1.324-4.701-1.323-4.701Z" fill="#fff"/><path d="m102.715 193.633 5.716-8.373 2.019 1.378-5.717 8.373-2.018-1.378Zm-2.519-1.72 1.064-1.559 6.998 4.779-1.064 1.558-6.998-4.778Zm-1.962-11.34 1.06-1.552 4.462 3.047-1.06 1.552-4.462-3.047Zm-.913 9.377 5.716-8.373 2.019 1.378-5.717 8.373-2.018-1.378Zm-.9-5.488 1.025-1.501 3.888 2.655-1.025 1.501-3.888-2.655Zm-2.861 2.92 1.064-1.559 4.48 3.059-1.065 1.558-4.48-3.058Zm-7.804-5.328 5.717-8.373 2.013 1.374-.596 7.232 3.557-5.21 2.019 1.378-5.717 8.373-2.018-1.378.595-7.232-3.557 5.21-2.013-1.374Zm-5.158-3.522 5.717-8.373 2.019 1.378-5.717 8.373-2.019-1.378Zm-2.519-1.72 1.065-1.559 6.998 4.779-1.064 1.558-6.999-4.778Zm-2.501-4.288 6.556-5.22 2.168 1.481-8.793 6.272-1.374-.939 1.443-1.594Zm2.824-7.768-2.468 8.011-.937 1.94-1.391-.95 2.623-10.485 2.173 1.484Zm-2.051 3.178 1.064-1.559 4.295 2.933-1.063 1.559-4.296-2.933Zm-6.454 3.291-3.296-2.25c-.644-.44-1.138-.918-1.482-1.434-.345-.517-.517-1.05-.517-1.601-.005-.554.182-1.107.559-1.659.327-.479.675-.829 1.044-1.049.37-.22.76-.343 1.173-.371a4.3 4.3 0 0 1 1.275.12l.917.078 2.766 1.889-1.053 1.566-2.047-1.398c-.257-.175-.5-.275-.732-.298a1.08 1.08 0 0 0-.647.132c-.206.112-.39.287-.552.525a1.638 1.638 0 0 0-.292.712c-.03.232.01.454.12.663.106.207.283.396.533.566l1.276.872 4.653-6.814 2.018 1.378-5.716 8.373Zm1.133-11.503-.677 4.968-2.147-1.449.603-4.909.06-.086 2.161 1.476Zm50.269 28.437 5.717-8.372 2.013 1.374-.596 7.232 3.557-5.21 2.019 1.378-5.717 8.373-2.018-1.378.595-7.232-3.557 5.209-2.013-1.374Zm-5.616-9.728.231-.34c.438-.64.92-1.153 1.449-1.54a4.538 4.538 0 0 1 1.64-.786 4.046 4.046 0 0 1 1.718-.033 4.532 4.532 0 0 1 1.664.724c.541.369.971.8 1.291 1.295.314.495.514 1.033.601 1.615a4.634 4.634 0 0 1-.129 1.818c-.172.63-.476 1.265-.913 1.906l-.232.339c-.437.64-.918 1.155-1.442 1.544a4.612 4.612 0 0 1-1.641.786 3.918 3.918 0 0 1-1.717.033 4.527 4.527 0 0 1-1.68-.726 4.452 4.452 0 0 1-1.276-1.292 3.918 3.918 0 0 1-.6-1.616 4.532 4.532 0 0 1 .128-1.818c.168-.633.471-1.269.908-1.909Zm2.279 1.058-.24.351a5.9 5.9 0 0 0-.637 1.167 2.943 2.943 0 0 0-.235 1.011 1.661 1.661 0 0 0 .753 1.467c.268.183.54.287.815.312.273.029.549-.018.83-.141.281-.123.564-.32.851-.591.279-.27.561-.612.843-1.026l.24-.351c.28-.41.496-.797.648-1.159.146-.362.226-.698.241-1.008a1.72 1.72 0 0 0-.168-.84 1.756 1.756 0 0 0-.594-.65 1.673 1.673 0 0 0-.798-.3 1.661 1.661 0 0 0-.838.153c-.287.124-.572.32-.856.587a5.99 5.99 0 0 0-.855 1.018Zm-4.742-6.231-6.113 5.211-2.26-1.543 8.541-6.445 1.46.997-1.628 1.78Zm-2.789 7.48 2.628-7.59 1.053-2.172 1.478 1.009-2.911 10.289-2.248-1.536Zm-8.108-8.116 6.556-5.219 2.168 1.48-8.793 6.272-1.375-.938 1.444-1.595Zm2.824-7.768-2.468 8.011-.937 1.94-1.392-.95 2.624-10.485 2.173 1.484Zm-2.051 3.178 1.064-1.559 4.295 2.933-1.064 1.559-4.295-2.933Zm-7.455 2.608-1.645-1.123 2.109-7.102-5.847 4.549-1.644-1.123 8.563-6.429 1.334.911-2.87 10.317Zm1 .683-1.702-1.162 4.066-6.634 1.335-1.955 2.018 1.378-5.717 8.373Zm-7.326-5.002-1.708-1.167 5.717-8.372 2.024 1.382-1.335 1.955-4.698 6.202Zm-4.107-12.804 1.06-1.553 4.463 3.047-1.06 1.552-4.463-3.046Zm-.913 9.376 5.717-8.373 2.018 1.378-5.716 8.373-2.019-1.378Zm-.899-5.487 1.025-1.501 3.887 2.654-1.025 1.501-3.887-2.654Zm-2.862 2.919 1.064-1.559 4.48 3.059-1.064 1.559-4.48-3.059Zm-7.803-5.328 5.717-8.373 2.012 1.374-.595 7.232 3.557-5.21 2.018 1.379-5.716 8.372-2.019-1.378.596-7.232-3.557 5.21-2.013-1.374Zm-5.158-3.522 5.717-8.373 2.018 1.378-5.717 8.373-2.018-1.378Zm-2.519-1.72 1.064-1.558 6.998 4.778-1.064 1.558-6.998-4.778Zm-1.962-11.339 1.06-1.553 4.462 3.047-1.06 1.552-4.462-3.046Zm-.913 9.376 5.717-8.373 2.018 1.378-5.717 8.373-2.018-1.378Zm-.9-5.487 1.025-1.501 3.888 2.654-1.025 1.501-3.887-2.654Zm-2.861 2.919 1.064-1.558 4.48 3.058-1.064 1.559-4.48-3.059Z" fill="#000"/><path d="m372.876 283.1-4.193 9.231-2.225-1.011 4.192-9.23 2.226 1.01Zm2.777 1.262-.781 1.718-7.715-3.505.78-1.718 7.716 3.505Zm3.881 10.833-.777 1.712-4.92-2.235.778-1.711 4.919 2.234Zm-.712-9.393-4.193 9.23-2.225-1.011 4.193-9.23 2.225 1.011Zm1.829 5.251-.752 1.654-4.285-1.946.751-1.655 4.286 1.947Zm2.318-3.368-.781 1.718-4.939-2.243.781-1.718 4.939 2.243Zm8.603 3.908-4.193 9.23-2.219-1.008-.656-7.226-2.609 5.743-2.225-1.01 4.192-9.231 2.226 1.011.656 7.227 2.609-5.744 2.219 1.008Zm5.686 2.583-4.193 9.231-2.225-1.011 4.193-9.231 2.225 1.011Zm2.777 1.261-.78 1.718-7.716-3.504.781-1.718 7.715 3.504Zm3.202 3.795-5.563 6.268-2.39-1.086 7.585-7.69 1.515.689-1.147 1.819Zm-1.448 8.137 1.055-8.316.589-2.072 1.534.697-.782 10.78-2.396-1.089Zm1.475-3.483-.781 1.718-4.735-2.151.78-1.718 4.736 2.151Zm5.792-4.351 3.633 1.65c.71.323 1.279.709 1.707 1.158.428.449.69.946.785 1.488.099.545.011 1.122-.266 1.73-.24.529-.523.933-.849 1.213-.326.28-.69.469-1.091.567a4.25 4.25 0 0 1-1.277.101l-.917.081-3.049-1.385.768-1.724 2.257 1.025c.283.129.541.185.773.168.232-.017.436-.098.614-.241a1.62 1.62 0 0 0 .454-.613c.121-.266.176-.516.165-.75a1.104 1.104 0 0 0-.232-.634c-.14-.186-.348-.341-.622-.466l-1.408-.639-3.412 7.513-2.225-1.011 4.192-9.231Zm.86 11.526-.187-5.01 2.365 1.058.249 4.94-.043.095-2.384-1.083Zm-54.408-19.375-4.193 9.231-2.219-1.008-.656-7.227-2.609 5.744-2.225-1.011 4.193-9.23 2.225 1.01.656 7.227 2.609-5.744 2.219 1.008Zm7.205 8.619-.17.374c-.321.706-.708 1.295-1.162 1.767a4.546 4.546 0 0 1-1.481 1.055c-.538.23-1.1.339-1.686.328a4.534 4.534 0 0 1-1.764-.427 4.612 4.612 0 0 1-1.495-1.053 4.123 4.123 0 0 1-.869-1.489 4.658 4.658 0 0 1-.186-1.813c.061-.65.252-1.328.573-2.034l.169-.374c.321-.706.706-1.296 1.156-1.769a4.612 4.612 0 0 1 1.481-1.056 3.937 3.937 0 0 1 1.686-.328 4.55 4.55 0 0 1 1.78.426c.592.269 1.085.62 1.479 1.054.4.432.69.928.869 1.489.181.556.243 1.16.186 1.813-.057.652-.245 1.331-.566 2.037Zm-2.427-.651.176-.387a5.9 5.9 0 0 0 .426-1.259c.084-.386.103-.731.058-1.037a1.67 1.67 0 0 0-.993-1.315 1.707 1.707 0 0 0-.857-.168 1.629 1.629 0 0 0-.793.282c-.256.17-.501.413-.737.729a6.58 6.58 0 0 0-.654 1.155l-.176.387c-.206.452-.352.87-.44 1.254a3.136 3.136 0 0 0-.064 1.033c.043.31.146.577.31.799.169.224.401.404.697.538.283.129.562.182.838.159.275-.023.541-.121.799-.295a3.01 3.01 0 0 0 .742-.725 5.95 5.95 0 0 0 .668-1.15Zm5.742 5.323 5.126-6.184 2.492 1.132-7.306 7.817-1.61-.732 1.298-2.033Zm1.462-7.848-1.284 7.929-.665 2.321-1.629-.74 1.099-10.636 2.479 1.126Zm9.383 6.602L371.31 310l-2.39-1.086 7.585-7.69 1.515.688-1.147 1.819Zm-1.448 8.138 1.055-8.316.589-2.073 1.534.697-.782 10.78-2.396-1.088Zm1.475-3.483-.781 1.718-4.735-2.151.78-1.718 4.736 2.151Zm6.896-3.85 1.813.823-.857 7.358 4.978-5.486 1.813.824-7.331 7.805-1.471-.668 1.055-10.656Zm-1.103-.501 1.876.852-2.865 7.234-.979 2.155-2.225-1.011 4.193-9.23Zm8.076 3.668 1.883.856-4.193 9.23-2.231-1.013.979-2.156 3.562-6.917Zm6.247 11.908-.778 1.712-4.919-2.235.777-1.712 4.92 2.235Zm-.712-9.394-4.193 9.231-2.225-1.011 4.193-9.23 2.225 1.01Zm1.829 5.252-.752 1.654-4.286-1.947.752-1.654 4.286 1.947Zm2.317-3.368-.78 1.718-4.939-2.243.78-1.719 4.939 2.244Zm8.603 3.908-4.193 9.23-2.219-1.008-.656-7.227-2.609 5.744-2.225-1.011 4.193-9.23 2.225 1.011.656 7.226 2.609-5.743 2.219 1.008Zm5.687 2.583-4.193 9.23-2.225-1.01 4.193-9.231 2.225 1.011Zm2.777 1.261-.781 1.718-7.715-3.505.78-1.718 7.716 3.505Zm3.881 10.833-.777 1.712-4.92-2.234.778-1.712 4.919 2.234Zm-.712-9.393-4.192 9.231-2.226-1.011 4.193-9.231 2.225 1.011Zm1.829 5.251-.752 1.655-4.285-1.947.751-1.655 4.286 1.947Zm2.318-3.368-.781 1.718-4.938-2.243.78-1.718 4.939 2.243Z" fill="#fff"/><path d="M234.186 133.787h2.285v8.93h-1.933l-4.325-4.113a11.71 11.71 0 0 0-1.116-.879 4.495 4.495 0 0 0-.905-.484 2.04 2.04 0 0 0-.73-.158c-.369 0-.676.056-.922.167a1.185 1.185 0 0 0-.572.475c-.129.205-.193.46-.193.764 0 .305.088.572.264.8.175.229.416.407.72.536a2.73 2.73 0 0 0 1.029.185v2.971a4.184 4.184 0 0 1-2.154-.572 4.269 4.269 0 0 1-1.555-1.608c-.393-.686-.589-1.48-.589-2.382 0-.943.146-1.734.439-2.373.293-.639.718-1.119 1.275-1.441.55-.328 1.215-.493 1.995-.493.445 0 .873.071 1.283.211.41.141.817.343 1.222.607.398.263.808.586 1.23.967.422.375.87.802 1.345 1.283l1.907 1.652v-5.045Zm-3.419-4.043-.554 2.356-6.539-.774v-7.479h2.303v5.062l2.54.29c-.082-.14-.179-.378-.29-.712a3.43 3.43 0 0 1-.176-1.125c0-.632.097-1.192.29-1.678.188-.492.466-.908.835-1.248a3.49 3.49 0 0 1 1.345-.765c.533-.176 1.143-.264 1.828-.264.551 0 1.084.091 1.6.273a4.01 4.01 0 0 1 1.38.817c.404.363.726.823.966 1.38.235.557.352 1.216.352 1.978a5.32 5.32 0 0 1-.264 1.661 4.898 4.898 0 0 1-.756 1.459 3.797 3.797 0 0 1-1.204 1.019 3.339 3.339 0 0 1-1.59.361v-2.98c.31-.017.58-.091.808-.22.229-.128.407-.301.536-.518.123-.223.185-.478.185-.765 0-.293-.059-.536-.176-.729a1.243 1.243 0 0 0-.483-.457 2.303 2.303 0 0 0-.703-.238 5.07 5.07 0 0 0-.853-.07 3.15 3.15 0 0 0-.853.106 1.594 1.594 0 0 0-.641.316c-.182.146-.32.337-.413.571a2.172 2.172 0 0 0-.141.826c0 .428.073.765.22 1.011.146.246.296.425.448.536Zm-1.863-16.796h2.338c.92 0 1.719.109 2.399.326.68.211 1.242.515 1.688.914.445.392.776.861.993 1.406.217.545.325 1.145.325 1.802 0 .527-.067 1.019-.202 1.476-.141.457-.352.87-.633 1.239a4.079 4.079 0 0 1-1.072.941 5.175 5.175 0 0 1-1.512.606 8.515 8.515 0 0 1-1.986.211h-2.338c-.926 0-1.726-.105-2.4-.316-.679-.217-1.242-.525-1.687-.923a3.725 3.725 0 0 1-.993-1.415 4.831 4.831 0 0 1-.325-1.802c0-.527.07-1.016.21-1.468a3.768 3.768 0 0 1 1.697-2.179 5.177 5.177 0 0 1 1.52-.607c.58-.14 1.24-.211 1.978-.211Zm2.698 2.962h-3.076c-.41 0-.768.024-1.072.071a3.099 3.099 0 0 0-.774.193 1.536 1.536 0 0 0-.51.308 1.082 1.082 0 0 0-.29.421 1.31 1.31 0 0 0-.096.51c0 .235.049.446.149.633.094.182.246.337.457.466.211.129.492.228.844.299.351.064.782.096 1.292.096h3.076c.416 0 .779-.02 1.09-.061.305-.047.565-.111.782-.194.211-.087.384-.193.519-.316.129-.123.222-.264.281-.422a1.47 1.47 0 0 0 .088-.518c0-.229-.047-.434-.141-.616a1.195 1.195 0 0 0-.457-.465c-.217-.135-.501-.235-.852-.299a6.859 6.859 0 0 0-1.31-.106Zm-7.928-9.184v-5.036c0-.985.147-1.84.44-2.567.293-.726.726-1.286 1.301-1.678.574-.399 1.283-.598 2.127-.598.732 0 1.344.114 1.836.343.493.228.9.547 1.222.958.317.404.577.876.782 1.415l.572 1.01v4.228l-2.382.017v-3.128c0-.393-.071-.718-.211-.976a1.362 1.362 0 0 0-.598-.58 2.04 2.04 0 0 0-.94-.202c-.369 0-.686.067-.949.202a1.391 1.391 0 0 0-.607.598c-.141.257-.211.577-.211.958v1.951h10.415v3.085h-12.797Zm12.797-7.005-5.66 2.83-.018-3.27 5.546-2.865h.132v3.305Zm-6.653-15.566h.518c.979 0 1.858.138 2.637.413.774.27 1.436.654 1.986 1.152a5.102 5.102 0 0 1 1.257 1.767c.287.68.431 1.43.431 2.25 0 .826-.144 1.582-.431 2.267a5.191 5.191 0 0 1-1.257 1.775 5.83 5.83 0 0 1-1.986 1.16c-.779.27-1.658.405-2.637.405h-.518c-.979 0-1.858-.135-2.637-.404-.779-.276-1.441-.66-1.986-1.152a4.95 4.95 0 0 1-1.257-1.766c-.293-.686-.439-1.442-.439-2.268 0-.82.146-1.57.439-2.25a4.932 4.932 0 0 1 1.257-1.775c.545-.498 1.207-.885 1.986-1.16.779-.276 1.658-.414 2.637-.414Zm.518 3.13h-.536c-.633 0-1.189.055-1.67.166-.486.106-.893.264-1.221.475a2.092 2.092 0 0 0-.993 1.828c0 .41.084.768.254 1.072.164.305.411.56.739.765.328.205.735.36 1.221.466.481.1 1.037.15 1.67.15h.536c.627 0 1.184-.05 1.67-.15.481-.106.888-.261 1.222-.466.334-.211.586-.469.756-.773.17-.311.255-.671.255-1.081a2.11 2.11 0 0 0-.255-1.046 2.098 2.098 0 0 0-.756-.765c-.334-.211-.741-.37-1.222-.475a7.523 7.523 0 0 0-1.67-.167Zm6.135-8.886v2.838l-2.373-.017v-2.821c0-.586-.14-1.082-.422-1.486-.281-.41-.7-.72-1.257-.931-.562-.217-1.253-.326-2.074-.326h-.553c-.616 0-1.155.062-1.618.185-.468.117-.858.293-1.169.527a2.215 2.215 0 0 0-.712.88 2.848 2.848 0 0 0-.237 1.194v2.848h-2.382v-2.848c0-.867.15-1.66.449-2.381a5.326 5.326 0 0 1 1.265-1.881 5.61 5.61 0 0 1 1.943-1.23c.744-.294 1.57-.44 2.478-.44h.536c.903 0 1.729.146 2.479.44a5.514 5.514 0 0 1 3.208 3.094c.293.714.439 1.5.439 2.355Zm-12.797 1.072h12.797v3.085h-12.797V79.47Zm2.69-13.799 10.107 3.12v3.314l-12.797-4.703v-2.1l2.69.369Zm10.107-2.584-10.107 3.129-2.69.404v-2.127l12.797-4.728v3.322Zm-4.772.123h2.382v6.566h-2.382V63.21Zm4.772-8.543v2.839l-2.373-.018v-2.82c0-.587-.14-1.082-.422-1.486-.281-.41-.7-.72-1.257-.932-.562-.217-1.253-.325-2.074-.325h-.554c-.615 0-1.154.061-1.617.184-.468.118-.858.294-1.169.528a2.216 2.216 0 0 0-.712.879 2.848 2.848 0 0 0-.237 1.195v2.848h-2.382v-2.848c0-.867.15-1.661.449-2.382a5.326 5.326 0 0 1 1.265-1.88 5.61 5.61 0 0 1 1.943-1.231c.744-.293 1.57-.44 2.478-.44h.536c.903 0 1.729.147 2.479.44.75.287 1.397.694 1.942 1.222a5.512 5.512 0 0 1 1.266 1.872c.293.715.439 1.5.439 2.355Zm-12.797 1.072h12.797v3.085h-12.797V55.74Zm2.69-13.799 10.107 3.12v3.314l-12.797-4.702v-2.1l2.69.368Zm10.107-2.583-10.107 3.129-2.69.404v-2.127l12.797-4.729v3.323Zm-4.772.123h2.382v6.565h-2.382v-6.565Zm1.371-10.978c-.199 0-.378.03-.536.088a1.117 1.117 0 0 0-.457.325 2.876 2.876 0 0 0-.422.686c-.147.293-.299.68-.457 1.16a17.584 17.584 0 0 1-.633 1.626 7.24 7.24 0 0 1-.835 1.397c-.322.41-.697.736-1.125.976-.434.24-.938.36-1.512.36a2.984 2.984 0 0 1-1.485-.369 3.392 3.392 0 0 1-1.134-1.028 4.934 4.934 0 0 1-.721-1.565 7.145 7.145 0 0 1-.254-1.96c0-.937.164-1.763.492-2.478.322-.72.782-1.283 1.38-1.688.591-.41 1.292-.615 2.1-.615v3.067c-.322 0-.606.068-.852.203a1.37 1.37 0 0 0-.58.588c-.141.264-.211.595-.211.994 0 .386.058.712.175.975.118.264.276.463.475.598.193.135.407.202.642.202a.93.93 0 0 0 .527-.158c.152-.111.296-.267.431-.466.134-.205.263-.451.386-.738.123-.293.244-.621.361-.985.216-.68.46-1.283.729-1.81.264-.533.566-.982.905-1.345.334-.369.715-.647 1.143-.835.428-.193.911-.29 1.45-.29.574 0 1.084.111 1.53.334.445.223.823.542 1.133.958.305.416.536.914.695 1.494a7.39 7.39 0 0 1 .237 1.943 7.78 7.78 0 0 1-.246 1.942 5.74 5.74 0 0 1-.774 1.723 4 4 0 0 1-1.344 1.239c-.551.305-1.204.457-1.96.457v-3.094c.375 0 .691-.05.949-.15.258-.099.466-.245.624-.439.152-.193.264-.43.334-.712.064-.28.097-.603.097-.966 0-.393-.056-.71-.167-.95a1.21 1.21 0 0 0-.457-.527 1.25 1.25 0 0 0-.633-.167Zm17.563 75.858h5.256c.24.217.498.551.774 1.002.269.446.501 1.008.694 1.688.193.68.29 1.479.29 2.399 0 .85-.135 1.62-.404 2.312a4.945 4.945 0 0 1-1.204 1.784c-.534.492-1.184.873-1.952 1.143-.773.263-1.658.395-2.654.395h-.712c-.996 0-1.881-.135-2.654-.404-.774-.27-1.424-.648-1.951-1.134a4.88 4.88 0 0 1-1.213-1.731 5.702 5.702 0 0 1-.413-2.198c0-1.177.187-2.135.562-2.874.369-.738.882-1.298 1.538-1.678.651-.381 1.404-.613 2.259-.695v2.962c-.422.059-.779.17-1.072.334a1.558 1.558 0 0 0-.677.686c-.158.299-.237.685-.237 1.16 0 .369.079.706.237 1.011.158.298.399.553.721.764.316.211.715.375 1.195.492.481.112 1.043.167 1.688.167h.729c.639 0 1.198-.052 1.679-.158.48-.111.882-.275 1.204-.492a2.18 2.18 0 0 0 .721-.844c.158-.345.237-.753.237-1.221 0-.329-.026-.61-.079-.844a2.531 2.531 0 0 0-.211-.58 1.913 1.913 0 0 0-.246-.361h-1.987v2.145h-2.118v-5.23Zm-5.959-1.801v-5.036c0-.985.147-1.84.44-2.567.293-.726.726-1.286 1.301-1.678.574-.399 1.283-.598 2.127-.598.732 0 1.344.114 1.836.343.493.228.9.547 1.222.958.317.404.577.876.782 1.415l.572 1.01v4.228l-2.382.017v-3.128c0-.393-.071-.718-.211-.976a1.362 1.362 0 0 0-.598-.58c-.263-.135-.577-.202-.94-.202-.369 0-.686.067-.949.202a1.391 1.391 0 0 0-.607.598c-.141.257-.211.577-.211.958v1.95h10.415v3.086h-12.797Zm12.797-7.005-5.66 2.83-.018-3.27 5.546-2.865h.132v3.305Zm-10.107-10.16 10.107 3.12v3.313l-12.797-4.702v-2.1l2.69.369Zm10.107-2.584-10.107 3.129-2.69.404v-2.127l12.797-4.729v3.323Zm-4.772.123h2.382v6.565h-2.382v-6.565Zm-8.693 4.07-2.759-1.741v-3.13l2.759 2.453v2.417Zm.668-13.598h12.797v3.085h-12.797v-3.085Zm0-3.85h2.382v10.697h-2.382V69.557Zm0-4.587h12.797v3.076h-12.797V64.97Zm9.396-8.763c-.199 0-.378.03-.536.088a1.118 1.118 0 0 0-.457.325 2.876 2.876 0 0 0-.422.686c-.147.293-.299.68-.457 1.16a17.586 17.586 0 0 1-.633 1.626c-.24.521-.519.987-.835 1.397-.322.41-.697.736-1.125.976-.434.24-.938.36-1.512.36a2.984 2.984 0 0 1-1.485-.369 3.392 3.392 0 0 1-1.134-1.028 4.934 4.934 0 0 1-.721-1.565 7.144 7.144 0 0 1-.254-1.96c0-.937.164-1.763.492-2.478.322-.72.782-1.283 1.38-1.688.591-.41 1.292-.615 2.1-.615v3.068c-.322 0-.606.067-.852.202a1.37 1.37 0 0 0-.58.589c-.141.263-.211.594-.211.993 0 .386.058.712.175.975.118.264.276.463.475.598.193.135.407.202.642.202a.93.93 0 0 0 .527-.158c.152-.111.296-.267.431-.466.134-.205.263-.451.386-.738.123-.293.244-.621.361-.985.216-.68.46-1.283.729-1.81.264-.533.566-.982.905-1.345.334-.369.715-.647 1.143-.835.428-.193.911-.29 1.45-.29.574 0 1.084.112 1.53.334a3.17 3.17 0 0 1 1.133.958c.305.416.536.914.695 1.494.158.58.237 1.228.237 1.943 0 .656-.082 1.303-.246 1.942a5.738 5.738 0 0 1-.774 1.723 4 4 0 0 1-1.344 1.239c-.551.305-1.204.457-1.96.457v-3.094c.375 0 .691-.05.949-.15.258-.099.466-.245.624-.438.152-.194.264-.431.334-.713.064-.28.097-.603.097-.966 0-.393-.056-.71-.167-.95a1.21 1.21 0 0 0-.457-.527 1.25 1.25 0 0 0-.633-.167Z" fill="#000"/><path d="M243.989 347.019h-2.285v-8.929h1.933l4.324 4.113c.416.363.789.656 1.117.879.334.223.635.384.905.483.269.106.513.159.729.159.37 0 .677-.056.923-.167.252-.106.443-.264.572-.475.128-.205.193-.46.193-.765 0-.304-.088-.571-.264-.799a1.744 1.744 0 0 0-.72-.537 2.73 2.73 0 0 0-1.029-.184v-2.971c.785 0 1.503.191 2.154.571.65.387 1.168.923 1.555 1.609.393.685.589 1.479.589 2.382 0 .943-.146 1.734-.439 2.373-.293.638-.718 1.119-1.275 1.441-.551.328-1.216.492-1.995.492-.445 0-.873-.07-1.283-.211a5.47 5.47 0 0 1-1.222-.606 10.572 10.572 0 0 1-1.23-.967c-.422-.375-.87-.803-1.345-1.283l-1.907-1.652v5.044Zm3.419 4.043.553-2.355 6.539.773v7.48h-2.302v-5.063l-2.54-.29c.082.141.178.378.29.712.117.34.176.715.176 1.125 0 .633-.097 1.193-.291 1.679a3.229 3.229 0 0 1-.834 1.248 3.49 3.49 0 0 1-1.345.765c-.533.175-1.143.263-1.828.263-.551 0-1.084-.09-1.6-.272a3.99 3.99 0 0 1-1.38-.817 3.927 3.927 0 0 1-.967-1.38c-.234-.557-.351-1.216-.351-1.978 0-.568.088-1.122.264-1.661a4.92 4.92 0 0 1 .755-1.459 3.799 3.799 0 0 1 1.204-1.02 3.33 3.33 0 0 1 1.591-.36v2.98c-.31.017-.58.09-.808.219a1.415 1.415 0 0 0-.536.519 1.555 1.555 0 0 0-.185.765c0 .292.059.536.176.729.117.193.278.346.483.457.205.111.44.19.703.237.27.047.554.071.853.071.316 0 .6-.036.852-.106.252-.064.466-.17.642-.316.182-.147.319-.337.413-.572.094-.228.141-.503.141-.826 0-.427-.074-.764-.22-1.01-.147-.247-.296-.425-.448-.537Zm1.863 16.796h-2.338c-.92 0-1.72-.108-2.399-.325-.68-.211-1.242-.515-1.688-.914a3.65 3.65 0 0 1-.993-1.406 4.831 4.831 0 0 1-.325-1.802c0-.527.067-1.019.202-1.476.141-.458.352-.871.633-1.24a4.06 4.06 0 0 1 1.072-.94 5.204 5.204 0 0 1 1.512-.607 8.57 8.57 0 0 1 1.986-.211h2.338c.926 0 1.726.106 2.399.317.68.217 1.243.524 1.688.923.445.398.776.87.993 1.415.217.545.325 1.145.325 1.801 0 .528-.07 1.017-.211 1.468a3.768 3.768 0 0 1-1.696 2.18 5.171 5.171 0 0 1-1.52.606 8.415 8.415 0 0 1-1.978.211Zm-2.698-2.962h3.076c.41 0 .768-.023 1.072-.07.305-.041.563-.105.774-.193a1.53 1.53 0 0 0 .509-.308c.135-.123.232-.264.29-.422.065-.152.097-.322.097-.51 0-.234-.05-.445-.149-.632a1.197 1.197 0 0 0-.457-.466c-.211-.129-.493-.229-.844-.299a7.353 7.353 0 0 0-1.292-.097h-3.076c-.416 0-.78.021-1.09.062a3.9 3.9 0 0 0-.782.193 1.782 1.782 0 0 0-.519.317 1.099 1.099 0 0 0-.281.422 1.47 1.47 0 0 0-.088.518c0 .229.047.434.141.615.093.182.246.337.457.466.216.135.501.235.852.299.358.07.794.105 1.31.105Zm7.927 9.185v5.036c0 .985-.146 1.84-.439 2.567-.293.726-.727 1.286-1.301 1.678-.574.399-1.283.598-2.127.598-.732 0-1.344-.114-1.837-.343a3.282 3.282 0 0 1-1.221-.958 5.391 5.391 0 0 1-.783-1.415l-.571-1.011v-4.227l2.382-.018v3.129c0 .393.07.718.211.976s.34.451.598.58c.263.135.577.202.94.202.369 0 .686-.067.949-.202.264-.135.466-.334.607-.598.14-.258.211-.577.211-.958v-1.951h-10.415v-3.085H254.5Zm-12.796 7.005 5.66-2.83.017 3.269-5.546 2.866h-.131v-3.305Zm6.653 15.565h-.519c-.978 0-1.857-.137-2.636-.413a5.726 5.726 0 0 1-1.987-1.151 5.1 5.1 0 0 1-1.257-1.767c-.287-.679-.43-1.429-.43-2.25 0-.826.143-1.582.43-2.267a5.192 5.192 0 0 1 1.257-1.776c.551-.498 1.213-.884 1.987-1.16.779-.269 1.658-.404 2.636-.404h.519c.978 0 1.857.135 2.637.404.779.276 1.441.659 1.986 1.151.551.499.97 1.087 1.257 1.767.293.686.439 1.442.439 2.268 0 .82-.146 1.57-.439 2.25a4.935 4.935 0 0 1-1.257 1.775c-.545.498-1.207.885-1.986 1.16-.78.276-1.659.413-2.637.413Zm-.519-3.129h.537c.632 0 1.189-.055 1.669-.167.487-.105.894-.263 1.222-.474.328-.211.574-.472.738-.782.17-.305.255-.654.255-1.046 0-.41-.085-.768-.255-1.073a2.047 2.047 0 0 0-.738-.764c-.328-.205-.735-.361-1.222-.466a8.261 8.261 0 0 0-1.669-.149h-.537c-.627 0-1.183.049-1.67.149-.48.105-.887.261-1.221.466a2.17 2.17 0 0 0-.756.773c-.17.311-.255.671-.255 1.081 0 .393.085.741.255 1.046.17.305.422.56.756.765.334.211.741.369 1.221.474a7.488 7.488 0 0 0 1.67.167Zm-6.134 8.886v-2.839l2.373.018v2.821c0 .586.14 1.081.422 1.485.281.411.7.721 1.256.932.563.217 1.254.325 2.075.325h.553c.616 0 1.155-.061 1.617-.184.469-.117.859-.293 1.169-.528.317-.234.554-.527.712-.878.159-.346.238-.745.238-1.196v-2.847h2.381v2.847c0 .867-.149 1.661-.448 2.382a5.333 5.333 0 0 1-1.265 1.881 5.61 5.61 0 0 1-1.943 1.23c-.744.293-1.57.44-2.478.44h-.536c-.903 0-1.729-.147-2.479-.44a5.674 5.674 0 0 1-1.942-1.221 5.526 5.526 0 0 1-1.266-1.872c-.293-.715-.439-1.5-.439-2.356Zm12.796-1.072h-12.796v-3.085H254.5v3.085Zm-2.689 13.799-10.107-3.12v-3.314l12.796 4.702v2.101l-2.689-.369Zm-10.107 2.584 10.107-3.129 2.689-.405v2.127l-12.796 4.729v-3.322Zm4.772-.123h-2.382v-6.566h2.382v6.566Zm-4.772 8.543V423.3l2.373.017v2.822c0 .586.14 1.081.422 1.485.281.41.7.721 1.256.932.563.216 1.254.325 2.075.325h.553c.616 0 1.155-.062 1.617-.185.469-.117.859-.293 1.169-.527.317-.234.554-.527.712-.879.159-.346.238-.744.238-1.195v-2.848h2.381v2.848c0 .867-.149 1.661-.448 2.382a5.338 5.338 0 0 1-1.265 1.88 5.598 5.598 0 0 1-1.943 1.231c-.744.293-1.57.439-2.478.439h-.536c-.903 0-1.729-.146-2.479-.439a5.676 5.676 0 0 1-1.942-1.222 5.507 5.507 0 0 1-1.266-1.872c-.293-.715-.439-1.5-.439-2.355Zm12.796-1.073h-12.796v-3.085H254.5v3.085Zm-2.689 13.799-10.107-3.12v-3.313l12.796 4.702v2.1l-2.689-.369Zm-10.107 2.584 10.107-3.129 2.689-.404v2.127l-12.796 4.728v-3.322Zm4.772-.123h-2.382v-6.565h2.382v6.565Zm-1.371 10.978c.199 0 .378-.03.536-.088.164-.059.317-.167.457-.325.141-.159.281-.387.422-.686.146-.293.299-.68.457-1.16a17.2 17.2 0 0 1 .633-1.626c.24-.522.518-.987.835-1.398a3.77 3.77 0 0 1 1.125-.975c.433-.24.937-.361 1.512-.361.55 0 1.045.124 1.485.37.445.246.823.588 1.134 1.028.316.445.556.967.72 1.564.17.598.255 1.251.255 1.96 0 .938-.164 1.764-.492 2.479-.322.721-.782 1.283-1.38 1.687-.592.411-1.292.616-2.1.616v-3.068c.322 0 .606-.067.852-.202a1.37 1.37 0 0 0 .58-.589c.141-.263.211-.595.211-.993 0-.387-.058-.712-.176-.976a1.37 1.37 0 0 0-.474-.597 1.097 1.097 0 0 0-.642-.202.925.925 0 0 0-.527.158 1.83 1.83 0 0 0-.431.466 4.744 4.744 0 0 0-.387.738c-.123.293-.243.621-.36.984a12.05 12.05 0 0 1-.729 1.811 5.586 5.586 0 0 1-.906 1.345 3.356 3.356 0 0 1-1.142.835 3.49 3.49 0 0 1-1.45.29c-.575 0-1.084-.112-1.53-.334a3.184 3.184 0 0 1-1.134-.958 4.516 4.516 0 0 1-.694-1.495 7.385 7.385 0 0 1-.237-1.942c0-.656.082-1.304.246-1.942.17-.633.428-1.207.773-1.723.352-.516.8-.929 1.345-1.239.551-.305 1.204-.457 1.96-.457v3.094c-.375 0-.691.049-.949.149-.258.1-.466.246-.624.439a1.857 1.857 0 0 0-.334.712 4.327 4.327 0 0 0-.097.967c0 .393.056.709.167.949.117.241.27.416.457.528.194.111.404.167.633.167Zm-17.563-75.859h-5.256c-.241-.217-.498-.551-.774-1.002-.269-.445-.501-1.008-.694-1.687-.193-.68-.29-1.48-.29-2.4 0-.849.135-1.62.404-2.311a4.937 4.937 0 0 1 1.204-1.784c.533-.493 1.184-.873 1.951-1.143.774-.264 1.659-.395 2.655-.395h.712c.996 0 1.88.134 2.654.404.773.269 1.424.647 1.951 1.134a4.88 4.88 0 0 1 1.213 1.731 5.72 5.72 0 0 1 .413 2.197c0 1.178-.187 2.136-.562 2.874-.37.739-.882 1.298-1.539 1.679-.65.381-1.403.612-2.258.694v-2.961c.422-.059.779-.17 1.072-.334.299-.159.524-.387.677-.686.158-.299.237-.686.237-1.16 0-.369-.079-.706-.237-1.011a2.081 2.081 0 0 0-.721-.765c-.316-.21-.715-.375-1.195-.492a7.565 7.565 0 0 0-1.688-.167h-.729c-.639 0-1.199.053-1.679.158-.48.112-.882.276-1.204.493a2.169 2.169 0 0 0-.721.843c-.158.346-.237.753-.237 1.222 0 .328.026.609.079.844.059.234.129.428.211.58a1.9 1.9 0 0 0 .246.36h1.986v-2.144h2.119v5.229Zm5.958 1.802v5.036c0 .985-.146 1.84-.439 2.567-.293.726-.727 1.286-1.301 1.678-.574.399-1.283.598-2.127.598-.732 0-1.344-.114-1.837-.343a3.282 3.282 0 0 1-1.221-.958 5.391 5.391 0 0 1-.783-1.415l-.571-1.011v-4.227l2.382-.018v3.129c0 .393.07.718.211.976s.34.451.598.58c.263.135.577.202.94.202.369 0 .686-.067.949-.202.264-.135.466-.334.607-.598.14-.258.211-.577.211-.958v-1.951h-10.415v-3.085H233.5Zm-12.796 7.005 5.66-2.83.017 3.269-5.546 2.866h-.131v-3.305Zm10.107 10.16-10.107-3.12v-3.314l12.796 4.703v2.1l-2.689-.369Zm-10.107 2.584 10.107-3.129 2.689-.404v2.127l-12.796 4.728v-3.322Zm4.772-.123h-2.382v-6.565h2.382v6.565Zm8.692-4.069 2.76 1.74v3.129l-2.76-2.452v-2.417ZM233.5 407.4h-12.796v-3.085H233.5v3.085Zm0 3.85h-2.381v-10.696h2.381v10.696Zm0 4.588h-12.796v-3.076H233.5v3.076Zm-9.395 8.763c.199 0 .378-.03.536-.088.164-.059.317-.167.457-.326.141-.158.281-.386.422-.685.146-.293.299-.68.457-1.16a17.2 17.2 0 0 1 .633-1.626c.24-.522.518-.988.835-1.398a3.77 3.77 0 0 1 1.125-.975c.433-.241.937-.361 1.512-.361.55 0 1.045.123 1.485.37.445.246.823.588 1.134 1.028.316.445.556.967.72 1.564.17.598.255 1.251.255 1.96 0 .938-.164 1.764-.492 2.479-.322.72-.782 1.283-1.38 1.687-.592.41-1.292.615-2.1.615v-3.067c.322 0 .606-.067.852-.202a1.37 1.37 0 0 0 .58-.589c.141-.264.211-.595.211-.993 0-.387-.058-.712-.176-.976a1.365 1.365 0 0 0-.474-.597 1.097 1.097 0 0 0-.642-.202.925.925 0 0 0-.527.158 1.83 1.83 0 0 0-.431.466 4.744 4.744 0 0 0-.387.738c-.123.293-.243.621-.36.984-.217.68-.46 1.283-.729 1.811a5.56 5.56 0 0 1-.906 1.344 3.33 3.33 0 0 1-1.142.835c-.428.194-.911.29-1.45.29-.575 0-1.084-.111-1.53-.334a3.164 3.164 0 0 1-1.134-.958 4.52 4.52 0 0 1-.694-1.494 7.385 7.385 0 0 1-.237-1.942c0-.656.082-1.304.246-1.942.17-.633.428-1.207.773-1.723.352-.516.8-.929 1.345-1.239.551-.305 1.204-.457 1.96-.457v3.093c-.375 0-.691.05-.949.15a1.468 1.468 0 0 0-.624.439 1.857 1.857 0 0 0-.334.712 4.32 4.32 0 0 0-.097.967c0 .393.056.709.167.949.117.24.27.416.457.528.194.111.404.167.633.167Z" fill="#fff"/><path d="m317.708 201.013 3.777 11.211-2.595.875-2.791-8.286-2.305 1.609-.664-1.972 4.339-3.357.239-.08Zm14.329 5.426.675 2.002-7.823 2.637-.571-1.694 2.327-5.003c.195-.472.342-.884.441-1.238.096-.358.148-.67.156-.935a1.87 1.87 0 0 0-.077-.686c-.109-.324-.249-.577-.419-.759a1.087 1.087 0 0 0-.584-.361c-.218-.052-.46-.033-.727.057a1.17 1.17 0 0 0-.623.467 1.61 1.61 0 0 0-.257.789c-.018.304.029.622.142.956l-2.603.877a3.865 3.865 0 0 1-.135-2.056 3.96 3.96 0 0 1 .95-1.837c.485-.547 1.122-.953 1.913-1.219.826-.279 1.563-.384 2.209-.316.646.068 1.192.299 1.639.691.45.386.79.92 1.02 1.603.131.39.196.785.194 1.186a5.08 5.08 0 0 1-.171 1.25 9.548 9.548 0 0 1-.484 1.363c-.204.48-.446.999-.727 1.557l-.884 2.159 4.419-1.49Zm2.533-4.188-2.227.21-1.253-5.957 6.553-2.208.68 2.017-4.435 1.495.495 2.311c.099-.114.279-.269.538-.465.264-.203.575-.365.934-.486.555-.187 1.073-.267 1.557-.241.486.019.933.14 1.339.363.405.218.761.535 1.067.952.312.415.569.923.771 1.524.163.482.24.976.233 1.482a3.6 3.6 0 0 1-1.232 2.704c-.418.37-.961.667-1.629.892a4.938 4.938 0 0 1-1.533.26 4.574 4.574 0 0 1-1.501-.232 3.509 3.509 0 0 1-1.249-.754 3.085 3.085 0 0 1-.785-1.287l2.61-.88c.107.267.251.482.432.644.18.162.384.267.612.316.231.042.473.021.724-.064.257-.086.453-.209.588-.369.135-.16.22-.346.257-.558.037-.213.038-.442.001-.687a4.69 4.69 0 0 0-.19-.767 2.96 2.96 0 0 0-.344-.716 1.493 1.493 0 0 0-.467-.469 1.267 1.267 0 0 0-.622-.193 2.013 2.013 0 0 0-.766.121c-.375.126-.648.29-.82.491-.173.201-.285.384-.338.551Zm5.77-5.803-.199-.593a2.578 2.578 0 0 1-.115-1.256c.067-.412.25-.785.549-1.12.299-.335.723-.595 1.272-.78.564-.19 1.067-.242 1.508-.156.44.086.809.273 1.106.561.303.287.526.644.669 1.07l.2.593c.14.415.177.829.109 1.24-.062.41-.242.782-.541 1.117-.293.334-.717.594-1.272.78-.559.189-1.059.24-1.5.154a2.25 2.25 0 0 1-1.122-.556 2.561 2.561 0 0 1-.664-1.054Zm1.464-1.153.2.592c.052.154.132.29.24.408.108.118.239.2.391.246a.914.914 0 0 0 .512-.035.837.837 0 0 0 .42-.279.822.822 0 0 0 .148-.427 1.123 1.123 0 0 0-.056-.47l-.2-.593a1.152 1.152 0 0 0-.245-.423.75.75 0 0 0-.381-.241.836.836 0 0 0-.514.028.803.803 0 0 0-.41.284.797.797 0 0 0-.166.424c-.015.159.006.321.061.486Zm5.982 5.666-.2-.592a2.58 2.58 0 0 1-.112-1.249 2.25 2.25 0 0 1 .557-1.122c.304-.337.73-.598 1.28-.783.564-.19 1.064-.241 1.5-.154.44.086.809.273 1.106.562.303.287.525.641.667 1.062l.2.593c.141.42.179.837.112 1.248a2.15 2.15 0 0 1-.534 1.114c-.293.334-.717.594-1.272.78-.559.189-1.062.241-1.508.157a2.23 2.23 0 0 1-1.129-.554 2.563 2.563 0 0 1-.667-1.062Zm1.471-1.156.2.593c.054.16.142.295.266.408.124.113.264.191.422.235a.819.819 0 0 0 .465-.019c.236-.08.397-.18.482-.3a.628.628 0 0 0 .117-.417 1.617 1.617 0 0 0-.089-.467l-.199-.593a1.15 1.15 0 0 0-.243-.415.815.815 0 0 0-.895-.213.82.82 0 0 0-.584.711c-.015.159.005.318.058.477Zm-.83-7.351-2.523 10.608-1.414-.201 2.523-10.608 1.414.201Zm16.151-7.234 3.778 11.211-2.695.908-6.316-5.64 2.35 6.977-2.703.91-3.777-11.211 2.703-.911 6.316 5.64-2.351-6.976 2.695-.908Zm13.01 1.61.153.454c.289.857.427 1.668.416 2.432a5.298 5.298 0 0 1-.422 2.08 4.718 4.718 0 0 1-1.177 1.623 5.292 5.292 0 0 1-1.844 1.041c-.724.244-1.428.342-2.114.292a4.79 4.79 0 0 1-1.926-.577 5.403 5.403 0 0 1-1.603-1.397c-.466-.604-.844-1.334-1.132-2.191l-.154-.454c-.288-.858-.43-1.667-.424-2.43.012-.764.152-1.457.423-2.08a4.58 4.58 0 0 1 1.176-1.622 5.282 5.282 0 0 1 1.857-1.055 5.205 5.205 0 0 1 2.101-.279 4.554 4.554 0 0 1 1.927.577c.597.33 1.131.796 1.602 1.398.472.601.852 1.331 1.141 2.188ZM375 188.208l-.159-.47a6.928 6.928 0 0 0-.639-1.414c-.236-.395-.495-.705-.776-.93a1.934 1.934 0 0 0-1.895-.33c-.36.121-.648.301-.864.54-.219.233-.37.524-.452.872-.083.348-.099.751-.048 1.208.055.45.175.953.362 1.507l.158.47c.186.549.394 1.022.624 1.419.235.389.491.7.769.932.284.231.584.375.901.434.322.058.663.026 1.022-.095.344-.116.625-.294.841-.533a1.93 1.93 0 0 0 .447-.887c.086-.355.105-.759.055-1.211a6.947 6.947 0 0 0-.346-1.512Zm13.072-2.656-2.787.939-.703-2.086 2.787-.94c.38-.128.666-.296.859-.504.193-.207.306-.442.337-.705a1.853 1.853 0 0 0-.092-.834 2.263 2.263 0 0 0-.458-.798 1.457 1.457 0 0 0-.728-.458c-.292-.084-.628-.063-1.007.065l-1.772.597 3.075 9.125-2.703.91-3.777-11.211 4.473-1.507c.899-.303 1.727-.399 2.484-.289.763.109 1.416.392 1.958.85.541.452.936 1.045 1.183 1.779.244.724.282 1.414.115 2.071-.168.656-.527 1.246-1.076 1.768-.547.516-1.269.925-2.168 1.228Zm3.303-9.361 4.412-1.487c.862-.29 1.655-.415 2.378-.372.723.042 1.341.256 1.855.644.518.385.902.947 1.151 1.687.216.641.297 1.211.242 1.71-.055.499-.214.95-.479 1.353-.26.397-.597.764-1.008 1.103l-.717.799-3.704 1.248-.719-2.081 2.742-.924c.344-.116.608-.274.792-.473.184-.199.295-.431.332-.695a1.88 1.88 0 0 0-.101-.883c-.109-.324-.261-.581-.457-.772a1.284 1.284 0 0 0-.703-.355c-.267-.047-.567-.015-.901.098l-1.71.576 3.075 9.125-2.703.91-3.777-11.211Zm9.914 9.143-4.15-4.123 2.859-.981 4.148 4.013.038.116-2.895.975Zm3.245-13.577 3.778 11.211-2.695.908-3.778-11.211 2.695-.908Zm3.242-1.093 2.202-.742 5.131 6.957-.126-8.643 2.202-.742-.034 12.496-1.786.601-7.589-9.927Zm-1.34.452 2.279-.768 3.319 8.451.882 2.618-2.702.91-3.778-11.211Zm9.81-3.306 2.287-.77 3.778 11.211-2.711.913-.882-2.618-2.472-8.736Zm14.812 5.179.701 2.079-5.976 2.013-.7-2.079 5.975-2.013Zm-8.09-7.444 3.778 11.212-2.703.91-3.778-11.211 2.703-.911Zm5.743 3.021.677 2.01-5.206 1.754-.677-2.01 5.206-1.754Zm-.707-4.717.703 2.086-5.998 2.021-.703-2.086 5.998-2.021Zm3.958-1.334 3.778 11.211-2.695.908-3.778-11.211 2.695-.908Zm1.902-.641 4.412-1.487c.862-.29 1.655-.414 2.378-.372.723.042 1.341.257 1.855.644.518.385.902.948 1.151 1.687.217.642.297 1.212.242 1.71a3.04 3.04 0 0 1-.478 1.353 4.975 4.975 0 0 1-1.009 1.104l-.717.798-3.704 1.248-.718-2.081 2.741-.924c.344-.116.608-.273.792-.473.185-.199.295-.431.332-.694.04-.271.007-.566-.1-.884a1.91 1.91 0 0 0-.458-.772 1.284 1.284 0 0 0-.702-.355c-.268-.047-.568-.014-.902.098l-1.709.576 3.074 9.125-2.703.91-3.777-11.211Zm9.914 9.144-4.15-4.124 2.859-.98 4.148 4.013.039.115-2.896.976Zm11.673-10.424.153.454c.289.857.428 1.668.417 2.432a5.32 5.32 0 0 1-.422 2.08 4.737 4.737 0 0 1-1.177 1.623 5.3 5.3 0 0 1-1.844 1.041 5.378 5.378 0 0 1-2.114.292 4.79 4.79 0 0 1-1.926-.577 5.38 5.38 0 0 1-1.603-1.398c-.466-.603-.844-1.333-1.133-2.19l-.153-.454c-.289-.858-.43-1.668-.424-2.43.011-.764.152-1.457.422-2.08.274-.63.666-1.17 1.177-1.623a5.28 5.28 0 0 1 1.857-1.054 5.205 5.205 0 0 1 2.101-.279 4.554 4.554 0 0 1 1.926.577c.597.33 1.132.796 1.603 1.398.471.601.851 1.33 1.14 2.188Zm-2.588 1.378-.158-.47a6.904 6.904 0 0 0-.639-1.414c-.236-.395-.495-.705-.777-.93a1.93 1.93 0 0 0-.903-.416 1.952 1.952 0 0 0-.992.086 2.01 2.01 0 0 0-.864.539 1.9 1.9 0 0 0-.452.873c-.083.348-.098.751-.047 1.208.054.45.175.952.362 1.507l.158.47c.185.549.393 1.022.624 1.418.234.39.49.701.769.933.283.231.583.375.9.434.323.057.663.025 1.023-.096.344-.116.624-.293.841-.532.217-.239.366-.535.447-.888.086-.355.104-.758.055-1.21a6.953 6.953 0 0 0-.347-1.512Zm-93.09 58.456-2.487.838-.685-2.084 2.471-.833c.514-.173.906-.442 1.177-.808.277-.368.425-.826.445-1.376.024-.557-.085-1.195-.327-1.913l-.163-.485a5.828 5.828 0 0 0-.64-1.363c-.241-.376-.51-.665-.807-.868a2.037 2.037 0 0 0-.98-.365 2.641 2.641 0 0 0-1.117.145l-2.495.841-.703-2.087 2.495-.84c.76-.256 1.499-.36 2.219-.311a4.919 4.919 0 0 1 2.021.554c.628.32 1.179.766 1.652 1.338.476.566.848 1.246 1.116 2.042l.159.47c.266.79.382 1.557.346 2.301a5.101 5.101 0 0 1-1.763 3.724 5.688 5.688 0 0 1-1.934 1.08Zm-4.717-10.895 3.778 11.212-2.703.91-3.778-11.211 2.703-.911Zm18.3 4.003.701 2.079-5.976 2.014-.7-2.079 5.975-2.014Zm-8.09-7.443 3.778 11.211-2.703.911-3.777-11.211 2.702-.911Zm5.743 3.021.677 2.01-5.205 1.754-.678-2.01 5.206-1.754Zm-.707-4.718.703 2.087-5.998 2.021-.703-2.087 5.998-2.021Zm8.056 5.534-2.788.94-.703-2.087 2.787-.939c.38-.128.667-.296.86-.504.193-.208.305-.443.337-.705.035-.27.004-.548-.093-.835a2.248 2.248 0 0 0-.458-.798 1.45 1.45 0 0 0-.728-.457c-.292-.085-.627-.064-1.007.064l-1.771.597 3.074 9.125-2.702.911-3.778-11.212 4.474-1.507c.898-.303 1.726-.399 2.483-.288.763.108 1.416.392 1.959.849.541.452.935 1.045 1.182 1.779.244.724.282 1.414.115 2.071-.168.657-.526 1.246-1.076 1.769-.547.515-1.269.925-2.167 1.227Zm14.602-7.175.153.454c.289.858.428 1.668.417 2.432a5.298 5.298 0 0 1-.423 2.08 4.705 4.705 0 0 1-1.177 1.623 5.283 5.283 0 0 1-1.844 1.041 5.372 5.372 0 0 1-2.113.293 4.815 4.815 0 0 1-1.927-.577 5.42 5.42 0 0 1-1.603-1.398c-.466-.603-.843-1.334-1.132-2.191l-.153-.454c-.289-.857-.431-1.667-.424-2.43.011-.764.152-1.457.422-2.08a4.582 4.582 0 0 1 1.177-1.622 5.282 5.282 0 0 1 1.857-1.055 5.2 5.2 0 0 1 2.1-.279 4.568 4.568 0 0 1 1.927.577c.597.33 1.131.796 1.603 1.398.471.601.851 1.331 1.14 2.188Zm-2.588 1.378-.158-.47a6.899 6.899 0 0 0-.64-1.414c-.236-.394-.495-.705-.776-.93a1.935 1.935 0 0 0-1.895-.33 2.003 2.003 0 0 0-.864.54 1.883 1.883 0 0 0-.452.872c-.083.348-.099.751-.048 1.208.055.45.176.953.362 1.507l.159.47c.185.549.393 1.022.624 1.419.234.39.49.701.768.933.284.23.584.375.901.433.322.058.663.026 1.022-.095.344-.116.625-.294.842-.532.216-.239.365-.535.446-.888.087-.355.105-.759.055-1.211a6.947 6.947 0 0 0-.346-1.512Zm-5.529-5.288.71-2.932 2.741-.923-1.333 3.141-2.118.714Zm16.253 4.341a1.397 1.397 0 0 0-.235-.444 1.032 1.032 0 0 0-.42-.304 2.659 2.659 0 0 0-.725-.168 8.226 8.226 0 0 0-1.151-.057 16.074 16.074 0 0 1-1.611-.075 6.663 6.663 0 0 1-1.471-.319 3.5 3.5 0 0 1-1.187-.697c-.339-.309-.592-.715-.762-1.219a2.754 2.754 0 0 1-.115-1.41 3.13 3.13 0 0 1 .566-1.297 4.57 4.57 0 0 1 1.158-1.093 6.604 6.604 0 0 1 1.642-.802c.821-.277 1.593-.377 2.317-.3.726.069 1.355.306 1.885.71.534.398.921.951 1.159 1.659l-2.687.906a1.61 1.61 0 0 0-.429-.688 1.266 1.266 0 0 0-.687-.334c-.272-.045-.583-.009-.932.108-.339.115-.607.262-.803.442a1.266 1.266 0 0 0-.383.593c-.061.209-.057.416.012.621.057.17.155.308.294.416.143.1.321.18.535.24.22.057.473.097.761.12.293.022.616.03.969.026.66-.011 1.26.024 1.802.104a5.17 5.17 0 0 1 1.445.396c.422.184.778.435 1.069.755.295.318.523.712.682 1.185.17.503.222.982.159 1.438a2.936 2.936 0 0 1-.505 1.276c-.274.39-.642.74-1.104 1.05-.461.31-1.005.57-1.631.781a7.191 7.191 0 0 1-1.775.358 5.321 5.321 0 0 1-1.737-.169 3.705 3.705 0 0 1-1.483-.813c-.43-.392-.756-.92-.979-1.582l2.71-.913c.111.328.248.591.412.787.163.197.353.336.569.417.214.077.455.104.722.083.265-.027.557-.094.876-.201.344-.116.604-.258.782-.426.176-.174.285-.359.327-.556.04-.203.027-.404-.041-.604Zm4.196-10.58 3.777 11.212-2.695.908-3.778-11.212 2.696-.908Zm7.099-2.392 3.778 11.212-2.703.91-3.778-11.211 2.703-.911Zm3.373-1.136.703 2.086-9.371 3.158-.703-2.087 9.371-3.157Zm12.232 1.872.153.454c.288.857.427 1.668.416 2.432a5.316 5.316 0 0 1-.422 2.08 4.728 4.728 0 0 1-1.177 1.623 5.292 5.292 0 0 1-1.844 1.041 5.375 5.375 0 0 1-2.114.292 4.79 4.79 0 0 1-1.926-.577 5.403 5.403 0 0 1-1.603-1.397c-.466-.604-.844-1.334-1.133-2.191l-.153-.454c-.289-.858-.43-1.667-.424-2.43.011-.764.152-1.457.422-2.08a4.594 4.594 0 0 1 1.177-1.623 5.28 5.28 0 0 1 1.857-1.054 5.205 5.205 0 0 1 2.101-.279 4.55 4.55 0 0 1 1.926.577c.598.33 1.132.796 1.603 1.398.472.601.852 1.33 1.141 2.188Zm-2.589 1.378-.158-.47a6.928 6.928 0 0 0-.639-1.414c-.236-.395-.495-.705-.777-.93a1.948 1.948 0 0 0-1.894-.33c-.36.121-.648.301-.865.539a1.9 1.9 0 0 0-.452.873c-.082.348-.098.751-.047 1.208.055.45.175.953.362 1.507l.158.47c.185.549.393 1.022.624 1.419.234.389.491.7.769.932.283.231.584.375.901.434.322.057.663.025 1.022-.096.344-.115.624-.293.841-.532.217-.238.366-.534.447-.888.086-.354.104-.758.055-1.21a6.953 6.953 0 0 0-.347-1.512Z" fill="#000"/><path d="m162.483 276.336-4.331-11.01 2.548-1.002 3.201 8.136 2.221-1.721.762 1.936-4.167 3.569-.234.092Zm-14.582-4.707-.774-1.966 7.683-3.022.654 1.664-2.075 5.112c-.172.481-.298.9-.379 1.258a4.13 4.13 0 0 0-.109.942c0 .268.037.495.111.681.124.318.276.564.456.738.176.181.376.291.601.331.22.041.461.01.723-.093.263-.103.462-.269.599-.497.137-.229.21-.496.218-.802a2.533 2.533 0 0 0-.19-.947l2.556-1.005c.266.675.345 1.357.238 2.045a3.956 3.956 0 0 1-.858 1.883c-.457.57-1.073 1.008-1.85 1.313-.811.319-1.541.461-2.19.425-.649-.036-1.206-.239-1.671-.609-.469-.362-.835-.879-1.099-1.55a3.624 3.624 0 0 1-.253-1.175c-.018-.4.018-.819.108-1.256.092-.432.231-.894.416-1.386.18-.49.396-1.02.649-1.591l.776-2.2-4.34 1.707Zm-2.322 4.31 2.214-.321 1.548 5.888-6.435 2.531-.779-1.981 4.355-1.714-.61-2.283a3.829 3.829 0 0 1-.514.49 3.157 3.157 0 0 1-.909.532c-.544.215-1.058.321-1.542.319a2.984 2.984 0 0 1-1.356-.296 3.204 3.204 0 0 1-1.113-.898c-.332-.399-.614-.894-.846-1.484a4.417 4.417 0 0 1-.307-1.468 3.709 3.709 0 0 1 .236-1.464c.176-.471.463-.903.86-1.299.4-.39.927-.713 1.583-.971a4.928 4.928 0 0 1 1.518-.336 4.553 4.553 0 0 1 1.511.157c.481.142.909.373 1.285.691.372.325.655.74.848 1.246l-2.563 1.009a1.701 1.701 0 0 0-.463-.621 1.31 1.31 0 0 0-.628-.286 1.433 1.433 0 0 0-.72.1c-.252.099-.441.232-.568.398a1.158 1.158 0 0 0-.23.57 2.15 2.15 0 0 0 .034.686c.051.247.127.5.228.757.107.272.234.505.38.698.14.195.303.343.489.445.187.106.398.16.631.162.229.003.481-.05.759-.159.368-.145.633-.322.795-.531.162-.209.265-.398.309-.567Zm-5.474 6.083.229.582c.165.418.224.834.177 1.249a2.19 2.19 0 0 1-.493 1.145c-.281.35-.692.63-1.231.843-.555.218-1.054.295-1.498.231a2.14 2.14 0 0 1-1.133-.506 2.574 2.574 0 0 1-.722-1.035l-.229-.582a2.54 2.54 0 0 1-.171-1.234c.042-.412.203-.793.485-1.142.277-.348.687-.629 1.232-.843.549-.216 1.046-.292 1.49-.228.444.064.827.231 1.149.5.316.271.554.611.715 1.02Zm-1.404 1.224-.229-.582a1.135 1.135 0 0 0-.261-.395.849.849 0 0 0-.403-.226.898.898 0 0 0-.509.061.841.841 0 0 0-.406.299.823.823 0 0 0-.126.434c-.007.16.019.315.079.467l.229.582c.063.161.152.298.266.41.109.114.24.188.393.221a.835.835 0 0 0 .512-.053.801.801 0 0 0 .395-.304.794.794 0 0 0 .144-.432c.007-.16-.021-.32-.084-.482Zm-6.257-5.362.229.582c.162.414.22.827.174 1.242a2.243 2.243 0 0 1-.5 1.148c-.287.351-.7.633-1.239.845-.555.219-1.052.295-1.491.229a2.14 2.14 0 0 1-1.133-.506 2.579 2.579 0 0 1-.719-1.027l-.229-.583a2.577 2.577 0 0 1-.174-1.241c.042-.412.201-.792.478-1.139.276-.348.687-.629 1.231-.843.55-.216 1.049-.293 1.498-.231.45.062.835.227 1.156.497.317.271.556.614.719 1.027Zm-1.412 1.228-.229-.582a.946.946 0 0 0-.286-.394 1.025 1.025 0 0 0-.433-.214.818.818 0 0 0-.464.042c-.232.092-.387.199-.466.324a.622.622 0 0 0-.096.422c.013.152.05.306.112.462l.229.582c.061.157.149.291.263.403a.818.818 0 0 0 .904.168.82.82 0 0 0 .548-.739c.007-.16-.02-.318-.082-.474Zm1.196 7.301 1.991-10.72 1.422.13-1.991 10.72-1.422-.13Zm-15.772 8.029-4.331-11.01 2.647-1.041 6.589 5.319-2.695-6.851 2.654-1.044 4.331 11.01-2.654 1.044-6.589-5.319 2.694 6.851-2.646 1.041Zm-13.074-.961-.175-.446c-.331-.842-.51-1.645-.537-2.408a5.303 5.303 0 0 1 .318-2.099 4.715 4.715 0 0 1 1.095-1.679 5.291 5.291 0 0 1 1.79-1.132 5.365 5.365 0 0 1 2.096-.397 4.79 4.79 0 0 1 1.953.481 5.39 5.39 0 0 1 1.67 1.316c.496.579.909 1.29 1.241 2.131l.175.447c.331.841.513 1.643.545 2.405.026.763-.08 1.463-.319 2.098a4.592 4.592 0 0 1-1.094 1.68 5.297 5.297 0 0 1-1.802 1.145 5.197 5.197 0 0 1-2.085.383 4.568 4.568 0 0 1-1.953-.48c-.612-.3-1.169-.739-1.67-1.316-.501-.578-.916-1.287-1.248-2.129Zm2.517-1.505.181.461c.214.545.451 1.005.709 1.38.255.383.529.68.822.891.292.211.6.334.923.37.319.043.648-.002.986-.134a2 2 0 0 0 .836-.583 1.88 1.88 0 0 0 .408-.894c.065-.351.061-.754-.013-1.208a7.672 7.672 0 0 0-.436-1.487l-.182-.462a7.707 7.707 0 0 0-.694-1.386 3.633 3.633 0 0 0-.814-.893 1.996 1.996 0 0 0-.921-.389 2.047 2.047 0 0 0-1.016.147 1.957 1.957 0 0 0-.814.573 1.948 1.948 0 0 0-.402.909c-.068.359-.067.763.005 1.212.069.456.21.954.422 1.493Zm-12.925 3.303 2.738-1.077.806 2.049-2.738 1.077c-.373.147-.65.329-.833.546a1.237 1.237 0 0 0-.301.721 1.84 1.84 0 0 0 .134.829c.12.303.285.561.497.774.207.216.457.356.75.421.296.07.63.032 1.003-.115l1.739-.684-3.525-8.961 2.654-1.044 4.331 11.01-4.393 1.728c-.882.347-1.704.484-2.467.411-.767-.07-1.433-.321-1.998-.75-.563-.425-.986-.998-1.27-1.719-.279-.71-.351-1.398-.217-2.062.135-.664.464-1.271.987-1.82.52-.542 1.221-.987 2.103-1.334Zm-2.832 9.514-4.333 1.704c-.847.333-1.632.497-2.356.491-.725-.006-1.353-.19-1.885-.551-.537-.359-.948-.902-1.234-1.628-.248-.63-.357-1.195-.327-1.696a3.04 3.04 0 0 1 .411-1.375c.24-.41.558-.793.953-1.152l.676-.834 3.637-1.431.821 2.044-2.692 1.058c-.337.133-.593.304-.768.512a1.257 1.257 0 0 0-.296.711c-.027.272.021.565.144.877.125.318.29.567.495.748.205.182.445.288.72.32.269.034.567-.014.895-.143l1.679-.66-3.525-8.961 2.654-1.044 4.331 11.01Zm-10.357-8.639 4.35 3.912-2.807 1.121-4.342-3.801-.044-.114 2.843-1.118Zm-2.566 13.722-4.33-11.009 2.646-1.041 4.33 11.009-2.646 1.041Zm-3.183 1.253-2.162.85-5.471-6.693.555 8.627-2.162.85-.588-12.482 1.754-.69 8.074 9.538Zm1.316-.518-2.239.88-3.735-8.275-1.011-2.571 2.654-1.044 4.33 11.01Zm-9.634 3.789-2.245.884-4.331-11.01 2.661-1.047 1.012 2.571 2.903 8.602Zm-15.051-4.434-.803-2.042 5.868-2.308.803 2.041-5.868 2.309Zm8.45 7.031-4.33-11.009 2.654-1.044 4.33 11.009-2.654 1.044Zm-5.885-2.731-.777-1.974 5.112-2.011.776 1.974-5.111 2.011Zm.94 4.677-.806-2.05 5.89-2.317.806 2.049-5.89 2.318Zm-3.887 1.528-4.33-11.009 2.646-1.041 4.331 11.009-2.647 1.041Zm-1.867.735-4.333 1.704c-.847.334-1.632.497-2.357.491-.724-.006-1.352-.19-1.884-.551-.537-.359-.949-.902-1.234-1.628-.248-.63-.357-1.195-.327-1.696.03-.501.167-.959.41-1.375.242-.409.56-.793.954-1.152l.676-.834 3.637-1.43.821 2.043-2.692 1.059c-.338.133-.594.303-.768.511a1.26 1.26 0 0 0-.297.711c-.026.272.022.565.145.877.125.318.29.567.495.749.205.181.445.287.72.319.269.034.567-.014.895-.143l1.679-.66-3.525-8.96 2.654-1.044 4.33 11.009Zm-10.358-8.639 4.35 3.912-2.806 1.122-4.342-3.802-.045-.113 2.843-1.119Zm-11.14 10.992-.175-.446c-.33-.842-.51-1.645-.537-2.408a5.303 5.303 0 0 1 .319-2.099 4.719 4.719 0 0 1 1.094-1.679 5.3 5.3 0 0 1 1.79-1.132c.71-.28 1.41-.412 2.097-.397a4.789 4.789 0 0 1 1.953.481 5.402 5.402 0 0 1 1.67 1.316c.495.579.909 1.29 1.24 2.131l.175.447c.332.841.513 1.643.545 2.405.027.764-.08 1.463-.318 2.098a4.578 4.578 0 0 1-1.095 1.68 5.287 5.287 0 0 1-1.802 1.145c-.706.278-1.4.405-2.084.383a4.567 4.567 0 0 1-1.953-.48c-.613-.3-1.17-.739-1.67-1.316-.501-.577-.917-1.287-1.248-2.129Zm2.517-1.505.181.461c.215.545.451 1.005.71 1.38.255.383.529.68.821.891a1.95 1.95 0 0 0 1.909.236 2 2 0 0 0 .836-.583 1.89 1.89 0 0 0 .408-.893c.066-.352.061-.755-.012-1.209a7.663 7.663 0 0 0-.437-1.487l-.181-.462a7.76 7.76 0 0 0-.694-1.386 3.65 3.65 0 0 0-.814-.893 2 2 0 0 0-.922-.389 2.048 2.048 0 0 0-1.016.147 1.955 1.955 0 0 0-.813.573 1.936 1.936 0 0 0-.402.909c-.069.359-.067.763.005 1.212.068.456.209.954.421 1.493Zm90.066-63.016 2.443-.961.788 2.048-2.428.955c-.504.198-.882.486-1.135.865-.258.381-.383.846-.376 1.397.004.557.145 1.189.422 1.894l.188.477c.208.529.443.972.706 1.329.259.363.542.639.849.827.309.193.641.298.997.315.351.019.721-.048 1.109-.201l2.45-.963.806 2.049-2.45.964a5.707 5.707 0 0 1-2.201.42 4.93 4.93 0 0 1-2.046-.452 5.178 5.178 0 0 1-1.716-1.255c-.504-.541-.91-1.202-1.217-1.984l-.182-.461c-.305-.776-.459-1.536-.461-2.281a5.262 5.262 0 0 1 .394-2.084 5.098 5.098 0 0 1 1.182-1.723 5.682 5.682 0 0 1 1.878-1.175Zm5.254 10.647-4.331-11.01 2.654-1.044 4.331 11.01-2.654 1.044Zm-18.477-3.088-.803-2.041 5.867-2.309.803 2.042-5.867 2.308Zm8.45 7.032-4.331-11.01 2.654-1.044 4.331 11.01-2.654 1.044Zm-5.886-2.732-.776-1.973 5.112-2.011.776 1.973-5.112 2.011Zm.941 4.677-.806-2.049 5.89-2.317.806 2.049-5.89 2.317Zm-8.321-5.127 2.737-1.076.806 2.049-2.737 1.077c-.373.146-.651.328-.833.546a1.232 1.232 0 0 0-.301.721c-.022.27.023.547.134.829.119.302.284.56.496.774.207.215.457.355.751.42.295.071.629.032 1.002-.115l1.739-.684-3.524-8.96 2.654-1.044 4.331 11.009-4.394 1.729c-.882.347-1.704.484-2.466.411-.767-.071-1.433-.321-1.998-.751-.563-.424-.986-.997-1.27-1.718-.28-.711-.352-1.398-.217-2.063.134-.664.463-1.27.987-1.82.52-.542 1.221-.986 2.103-1.334Zm-14.227 7.894-.176-.447c-.33-.841-.51-1.644-.537-2.408a5.298 5.298 0 0 1 .319-2.098 4.724 4.724 0 0 1 1.094-1.68 5.3 5.3 0 0 1 1.79-1.132 5.384 5.384 0 0 1 2.097-.396 4.804 4.804 0 0 1 1.953.48 5.401 5.401 0 0 1 1.67 1.316c.495.579.909 1.29 1.24 2.132l.175.446c.332.842.513 1.644.545 2.405.027.764-.08 1.463-.318 2.099a4.583 4.583 0 0 1-1.095 1.679 5.273 5.273 0 0 1-1.802 1.145c-.706.278-1.4.406-2.084.384a4.553 4.553 0 0 1-1.953-.481c-.613-.3-1.17-.739-1.67-1.316-.501-.577-.917-1.287-1.248-2.128Zm2.516-1.506.182.462c.214.544.45 1.004.708 1.38.256.383.53.679.822.89.293.211.6.335.923.371.32.043.648-.002.986-.135.353-.139.632-.333.836-.582.207-.244.343-.542.408-.894.066-.352.062-.755-.012-1.209a7.656 7.656 0 0 0-.437-1.487l-.181-.461a7.707 7.707 0 0 0-.694-1.386 3.639 3.639 0 0 0-.814-.894 1.998 1.998 0 0 0-.922-.388 2.047 2.047 0 0 0-1.016.146 1.949 1.949 0 0 0-.814.574 1.936 1.936 0 0 0-.401.909c-.069.358-.067.762.005 1.211.068.456.209.954.421 1.493Zm5.785 5.007-.563 2.963-2.692 1.059 1.176-3.204 2.08-.818Zm-16.45-3.527c.068.171.154.315.258.432.106.121.25.215.434.283.184.067.428.111.733.131.302.026.686.027 1.153 0a16.093 16.093 0 0 1 1.613-.006c.53.031 1.025.112 1.485.246.462.138.868.351 1.22.637.353.292.627.685.821 1.179.187.474.248.941.185 1.403a3.129 3.129 0 0 1-.5 1.323 4.563 4.563 0 0 1-1.103 1.15c-.456.348-.99.642-1.6.882-.806.318-1.572.456-2.298.416-.73-.034-1.37-.239-1.92-.616-.552-.371-.966-.904-1.24-1.599l2.64-1.038c.109.277.263.499.462.665.194.168.428.268.703.299.274.032.583-.019.926-.154.332-.131.592-.292.78-.482.187-.19.305-.393.353-.61.05-.212.036-.419-.043-.621a.864.864 0 0 0-.315-.4 1.735 1.735 0 0 0-.546-.213 4.4 4.4 0 0 0-.766-.082c-.294-.007-.617.001-.97.023-.657.043-1.259.038-1.804-.015a5.14 5.14 0 0 1-1.463-.324 3.09 3.09 0 0 1-1.105-.7 3.226 3.226 0 0 1-.74-1.15c-.195-.494-.271-.97-.23-1.429.04-.458.187-.891.44-1.299a4.163 4.163 0 0 1 1.05-1.103c.446-.333.976-.62 1.591-.862a7.193 7.193 0 0 1 1.755-.445 5.306 5.306 0 0 1 1.743.082c.563.128 1.07.374 1.522.738.448.37.8.881 1.056 1.531l-2.661 1.047a2.442 2.442 0 0 0-.45-.766 1.366 1.366 0 0 0-.59-.388 1.729 1.729 0 0 0-.725-.047c-.264.04-.552.122-.864.244-.338.133-.592.288-.76.465a1.116 1.116 0 0 0-.3.572c-.03.204-.007.404.07.601Zm-3.662 10.775-4.331-11.009 2.646-1.041 4.331 11.009-2.647 1.041Zm-6.972 2.743-4.331-11.01 2.654-1.044 4.33 11.01-2.653 1.044Zm-3.312 1.302-.806-2.049 9.202-3.62.806 2.05-9.202 3.619Zm-12.31-1.261-.175-.446c-.332-.841-.51-1.644-.537-2.408a5.295 5.295 0 0 1 .318-2.098 4.714 4.714 0 0 1 1.094-1.68 5.3 5.3 0 0 1 1.79-1.132 5.384 5.384 0 0 1 2.097-.396 4.803 4.803 0 0 1 1.953.48 5.401 5.401 0 0 1 1.67 1.316c.496.579.91 1.29 1.24 2.132l.176.446c.33.842.512 1.644.544 2.405.027.764-.079 1.463-.318 2.099a4.583 4.583 0 0 1-1.094 1.679 5.272 5.272 0 0 1-1.803 1.145c-.705.278-1.4.406-2.084.384a4.553 4.553 0 0 1-1.953-.481c-.613-.3-1.17-.739-1.67-1.316-.5-.577-.917-1.287-1.248-2.129Zm2.516-1.505.182.462c.214.544.45 1.004.709 1.38.255.383.529.679.821.89.293.211.6.335.923.371.32.043.649-.002.986-.135.353-.139.632-.333.837-.582.206-.244.342-.542.408-.894.065-.352.06-.755-.013-1.209a7.663 7.663 0 0 0-.437-1.487l-.181-.461a7.7 7.7 0 0 0-.694-1.386 3.637 3.637 0 0 0-.814-.894 1.998 1.998 0 0 0-.921-.388 2.047 2.047 0 0 0-1.017.146 1.948 1.948 0 0 0-.813.574 1.936 1.936 0 0 0-.402.909c-.069.358-.067.762.005 1.211.069.456.21.954.421 1.493ZM168.088 159.433l8.982-7.46 1.726 2.079-6.637 5.513 2.299 1.551-1.579 1.312-4.632-2.803-.159-.192Zm1.238-8.638.984 1.976-5.04 3.269-4.36-5.249 1.616-1.343 2.951 3.554 1.952-1.278c-.14-.05-.346-.161-.619-.33-.28-.17-.54-.399-.779-.687-.369-.444-.627-.894-.775-1.348a2.95 2.95 0 0 1-.141-1.362c.056-.451.222-.891.498-1.321.271-.434.648-.851 1.129-1.251a4.365 4.365 0 0 1 1.282-.741c.46-.174.942-.251 1.445-.231.495.02.989.155 1.483.405.489.254.955.649 1.399 1.183.332.399.593.839.783 1.32.191.481.298.969.32 1.465.015.495-.068.967-.25 1.417a3.03 3.03 0 0 1-.907 1.18l-1.737-2.091c.208-.193.354-.402.44-.625.085-.224.11-.45.074-.677a1.424 1.424 0 0 0-.316-.644c-.171-.206-.354-.342-.549-.41a1.151 1.151 0 0 0-.606-.039 2.128 2.128 0 0 0-.632.244 4.57 4.57 0 0 0-.639.447 2.924 2.924 0 0 0-.537.571 1.473 1.473 0 0 0-.266.596c-.042.209-.028.423.043.642.068.215.195.436.383.662.25.3.497.494.744.581.246.088.455.126.627.115Zm-11.099-10.702 1.641-1.363c.645-.536 1.27-.926 1.873-1.171.6-.248 1.173-.362 1.718-.342a3.327 3.327 0 0 1 1.516.408c.47.256.897.615 1.279 1.075.308.371.547.755.719 1.155.168.402.26.815.278 1.238.01.423-.058.851-.204 1.285a4.714 4.714 0 0 1-.708 1.307 7.742 7.742 0 0 1-1.271 1.306l-1.641 1.363c-.65.54-1.272.932-1.868 1.177-.604.244-1.178.356-1.723.336a3.398 3.398 0 0 1-1.522-.414 4.406 4.406 0 0 1-1.278-1.075 4.453 4.453 0 0 1-.708-1.154 3.382 3.382 0 0 1-.278-1.238 3.42 3.42 0 0 1 .198-1.28c.147-.435.384-.872.714-1.312a7.667 7.667 0 0 1 1.265-1.301Zm3.62.506-2.159 1.793a6.488 6.488 0 0 0-.711.674 2.85 2.85 0 0 0-.431.587c-.1.181-.159.352-.178.513a.976.976 0 0 0 .042.465c.044.145.12.283.23.414.136.165.294.284.473.358.172.072.37.093.593.06.223-.032.478-.126.766-.282.284-.16.606-.388.963-.685l2.159-1.794c.292-.242.535-.468.729-.678.187-.211.332-.408.437-.592.097-.185.156-.359.179-.524a1.012 1.012 0 0 0-.048-.46 1.352 1.352 0 0 0-.241-.415 1.197 1.197 0 0 0-.457-.35 1.097 1.097 0 0 0-.593-.061c-.23.032-.488.128-.772.287a6.286 6.286 0 0 0-.981.69Zm-10.918-1.825-2.936-3.535c-.574-.691-.97-1.377-1.188-2.057-.218-.681-.239-1.327-.065-1.937.17-.614.552-1.167 1.144-1.659.514-.427 1.011-.704 1.489-.831a3.008 3.008 0 0 1 1.416-.039c.458.099.916.278 1.374.537l.99.376 2.465 2.967-1.662 1.401-1.824-2.196c-.229-.275-.468-.463-.717-.562a1.237 1.237 0 0 0-.757-.058 1.857 1.857 0 0 0-.778.406 1.878 1.878 0 0 0-.548.695 1.264 1.264 0 0 0-.078.773c.052.263.189.528.411.796l1.137 1.369 7.31-6.071 1.799 2.165-8.982 7.46Zm4.898-12.377-2.323 5.286-1.918-2.284 2.222-5.244.093-.077 1.926 2.319Zm-13.744-7.046.364-.302c.687-.571 1.384-.987 2.092-1.248a5.232 5.232 0 0 1 2.065-.349c.673.031 1.31.201 1.912.507a5.205 5.205 0 0 1 1.614 1.328c.482.58.822 1.194 1.02 1.843.19.647.241 1.307.153 1.978a5.359 5.359 0 0 1-.718 1.973c-.39.643-.928 1.25-1.615 1.82l-.364.303c-.687.57-1.382.988-2.087 1.253-.707.261-1.396.378-2.065.35a4.538 4.538 0 0 1-1.912-.507 5.215 5.215 0 0 1-1.63-1.336c-.478-.576-.813-1.187-1.003-1.835a4.48 4.48 0 0 1-.153-1.979 5.218 5.218 0 0 1 .718-1.972c.386-.648.923-1.257 1.609-1.827Zm2.188 1.894-.376.312a6.849 6.849 0 0 0-1.075 1.091c-.28.357-.473.706-.58 1.045a1.9 1.9 0 0 0-.063.98c.059.312.202.607.431.882.239.288.507.489.804.604.293.118.614.154.964.107.35-.048.726-.176 1.129-.386a7.55 7.55 0 0 0 1.259-.868l.377-.313a7.68 7.68 0 0 0 1.085-1.078c.275-.354.471-.701.585-1.039.112-.343.138-.671.08-.984a2.025 2.025 0 0 0-.451-.907 1.926 1.926 0 0 0-.789-.586 1.93 1.93 0 0 0-.976-.096 3.48 3.48 0 0 0-1.134.379c-.406.206-.83.491-1.27.857Zm-.874-9.813 1.655 1.992-1.676 1.371-1.644-1.98c-.342-.411-.729-.677-1.162-.797-.437-.124-.912-.097-1.426.079-.521.176-1.069.503-1.645.981l-.389.323a5.81 5.81 0 0 0-1.027 1.072c-.261.356-.432.706-.513 1.052-.086.349-.081.693.013 1.032.09.335.267.66.53.977l1.66 1.999-1.672 1.388-1.66-1.999a5.617 5.617 0 0 1-1.074-1.933 4.862 4.862 0 0 1-.208-2.058 5.129 5.129 0 0 1 .646-1.996c.352-.639.846-1.223 1.483-1.753l.377-.312c.633-.526 1.298-.905 1.996-1.137a5.192 5.192 0 0 1 2.075-.275c.69.053 1.35.245 1.98.577.622.33 1.183.796 1.681 1.397Zm-8.357 8.212 8.982-7.46 1.799 2.165-8.982 7.46-1.799-2.165Zm-6.156-11.253 8.913-3.702 1.932 2.326-11.723 4.159-1.225-1.474 2.103-1.309Zm5.588-7.706-5.27 8.089-1.652 1.851-1.24-1.493 6.225-10.778 1.937 2.331Zm-3.278 2.869 1.672-1.389 3.827 4.609-1.672 1.388-3.827-4.608Zm-1.63-8.778 1.654 1.992-1.675 1.371-1.645-1.98c-.342-.411-.729-.677-1.162-.797-.437-.123-.912-.097-1.425.08-.521.175-1.07.502-1.646.98l-.388.323a5.764 5.764 0 0 0-1.028 1.072c-.261.356-.432.706-.513 1.052-.085.349-.081.693.013 1.032.09.335.267.66.53.977l1.66 1.999-1.672 1.388-1.66-1.998a5.638 5.638 0 0 1-1.074-1.934 4.862 4.862 0 0 1-.208-2.058 5.122 5.122 0 0 1 .646-1.995c.352-.64.846-1.224 1.484-1.754l.376-.312a6.165 6.165 0 0 1 1.996-1.137 5.173 5.173 0 0 1 2.075-.275 5.03 5.03 0 0 1 1.98.577 5.625 5.625 0 0 1 1.682 1.397Zm-8.357 8.212 8.982-7.46 1.798 2.166-8.982 7.46-1.798-2.166Zm-6.157-11.253 8.913-3.702 1.932 2.326-11.723 4.16-1.225-1.475 2.103-1.309Zm5.588-7.705-5.27 8.088-1.652 1.851-1.24-1.492 6.225-10.78 1.937 2.333Zm-3.278 2.868 1.672-1.388 3.827 4.608-1.671 1.388-3.828-4.608Zm-5.437-8.504a1.4 1.4 0 0 0-.325.374 1.018 1.018 0 0 0-.131.495 2.65 2.65 0 0 0 .103.727c.068.29.187.651.356 1.08.196.505.364 1.008.504 1.51.135.507.211.996.228 1.468.013.476-.06.923-.221 1.34-.164.422-.448.8-.851 1.135a2.72 2.72 0 0 1-1.257.607 3.091 3.091 0 0 1-1.396-.061 4.49 4.49 0 0 1-1.417-.678 6.504 6.504 0 0 1-1.322-1.227c-.546-.658-.913-1.334-1.099-2.026-.194-.694-.199-1.357-.015-1.99.176-.632.548-1.184 1.115-1.656l1.788 2.153c-.226.188-.386.401-.48.64a1.25 1.25 0 0 0-.064.75c.055.268.199.541.431.82.225.272.456.466.692.583.236.117.463.164.682.143.214-.018.403-.096.568-.232a.856.856 0 0 0 .278-.419c.042-.167.052-.36.03-.578a4.357 4.357 0 0 0-.159-.743 10.901 10.901 0 0 0-.321-.901 10.919 10.919 0 0 1-.543-1.697 5.092 5.092 0 0 1-.149-1.471 3.06 3.06 0 0 1 .316-1.252c.187-.385.47-.735.848-1.05.404-.334.826-.553 1.269-.656.442-.104.893-.1 1.354.011.456.115.909.33 1.358.644.449.315.882.723 1.299 1.225.383.46.702.963.96 1.507.249.543.403 1.096.461 1.66a3.66 3.66 0 0 1-.221 1.654c-.209.534-.579 1.022-1.11 1.463l-1.803-2.171c.263-.22.456-.439.579-.659a1.35 1.35 0 0 0 .182-.672 1.7 1.7 0 0 0-.181-.694 3.976 3.976 0 0 0-.496-.735c-.228-.276-.452-.465-.67-.57a1.096 1.096 0 0 0-.628-.103 1.139 1.139 0 0 0-.542.252Zm54.888 44.385 3.689-3.064c.295.012.67.096 1.127.252.448.156.939.416 1.471.78.532.364 1.066.869 1.602 1.515.495.596.85 1.216 1.064 1.858.209.646.274 1.297.195 1.954-.088.657-.322 1.303-.704 1.94-.389.636-.933 1.244-1.632 1.825l-.5.415c-.699.58-1.399 1.002-2.099 1.263-.7.262-1.376.376-2.03.342a4.47 4.47 0 0 1-1.861-.508 5.227 5.227 0 0 1-1.571-1.302c-.686-.826-1.113-1.608-1.28-2.345-.171-.733-.138-1.425.101-2.075.234-.646.628-1.248 1.18-1.804l1.727 2.079a2.773 2.773 0 0 0-.558.86 1.428 1.428 0 0 0-.075.875c.063.302.233.62.51.953.215.259.467.449.755.571.286.117.603.156.952.117.345-.037.72-.154 1.126-.352a6.94 6.94 0 0 0 1.282-.866l.512-.426c.448-.372.81-.735 1.086-1.089.272-.359.458-.708.558-1.048.092-.34.097-.678.014-1.012-.091-.335-.272-.667-.546-.996a3.549 3.549 0 0 0-.547-.546 2.33 2.33 0 0 0-.486-.284 1.77 1.77 0 0 0-.383-.11l-1.394 1.158 1.25 1.506-1.487 1.234-3.048-3.67Zm-5.233 2.209-2.936-3.535c-.574-.691-.97-1.376-1.188-2.057-.218-.681-.239-1.326-.065-1.937.17-.614.552-1.167 1.144-1.659.514-.427 1.011-.704 1.489-.83.479-.127.951-.14 1.416-.04.458.099.916.278 1.374.537l.99.376 2.465 2.968-1.662 1.4-1.824-2.196c-.229-.275-.468-.462-.717-.561a1.238 1.238 0 0 0-.757-.059 1.857 1.857 0 0 0-.778.406 1.878 1.878 0 0 0-.548.695 1.265 1.265 0 0 0-.078.773c.052.263.189.529.411.796l1.137 1.369 7.31-6.071 1.799 2.165-8.982 7.46Zm4.898-12.376-2.323 5.285-1.918-2.284 2.222-5.244.093-.077 1.926 2.32Zm-13.017-1.24 8.913-3.702 1.932 2.326-11.723 4.16-1.225-1.475 2.103-1.309Zm5.588-7.705-5.27 8.088-1.652 1.852-1.24-1.493 6.225-10.779 1.937 2.332Zm-3.278 2.868 1.672-1.388 3.827 4.608-1.672 1.388-3.827-4.608Zm-3.729 7.924-2.951.387-1.824-2.196 3.366.112 1.409 1.697Zm-7.457-9.933 8.982-7.46 1.798 2.165-8.982 7.46-1.798-2.165Zm-2.244-2.702 1.671-1.388 6.236 7.507-1.672 1.389-6.235-7.508Zm-2.675-3.22 8.982-7.46 1.793 2.159-8.982 7.46-1.793-2.16Zm1.486-11.628c-.139.117-.248.241-.325.375a1.03 1.03 0 0 0-.131.494c-.006.193.028.436.104.727.068.291.186.652.355 1.081.197.504.364 1.008.504 1.51.135.506.211.996.229 1.468.012.476-.061.922-.221 1.34-.165.422-.448.8-.851 1.135a2.728 2.728 0 0 1-1.258.606 3.087 3.087 0 0 1-1.395-.06 4.485 4.485 0 0 1-1.418-.678 6.532 6.532 0 0 1-1.322-1.227c-.546-.658-.913-1.334-1.099-2.027-.194-.694-.199-1.357-.015-1.989.176-.633.548-1.185 1.115-1.656l1.789 2.153c-.227.188-.387.4-.481.639a1.25 1.25 0 0 0-.064.751c.055.267.199.54.431.82.226.272.456.466.692.582.236.117.463.165.682.143.214-.018.403-.095.568-.232a.85.85 0 0 0 .278-.418c.042-.167.052-.36.031-.578a4.359 4.359 0 0 0-.159-.744 11.705 11.705 0 0 0-.321-.901 10.926 10.926 0 0 1-.544-1.696 5.055 5.055 0 0 1-.148-1.472c.019-.453.124-.87.315-1.252.187-.385.47-.734.849-1.049.403-.334.825-.553 1.268-.657.442-.103.894-.1 1.354.012.456.114.909.329 1.358.644.45.315.883.723 1.299 1.225.383.46.703.962.96 1.506.249.544.403 1.097.461 1.66a3.66 3.66 0 0 1-.221 1.654c-.209.535-.579 1.023-1.109 1.464l-1.804-2.172c.263-.219.456-.438.579-.658a1.34 1.34 0 0 0 .182-.672 1.7 1.7 0 0 0-.181-.695 3.967 3.967 0 0 0-.495-.735c-.229-.275-.453-.465-.671-.569a1.096 1.096 0 0 0-.628-.103 1.14 1.14 0 0 0-.542.251Z" fill="#fff"/><path d="m306.239 303.479-10.112 5.838-1.351-2.341 7.473-4.314-2.005-1.917 1.778-1.026 4.093 3.545.124.215Zm1.694 12.476-1.848 1.067c-.726.419-1.408.699-2.044.837-.633.144-1.217.16-1.75.048a3.32 3.32 0 0 1-1.426-.658 4.412 4.412 0 0 1-1.079-1.275 4.742 4.742 0 0 1-.514-1.259 3.6 3.6 0 0 1-.066-1.268c.062-.418.201-.829.419-1.232.217-.404.523-.794.917-1.169.399-.379.89-.736 1.474-1.073l1.847-1.067c.732-.422 1.412-.704 2.04-.844.636-.139 1.221-.153 1.755-.041a3.4 3.4 0 0 1 1.43.665c.42.332.78.757 1.079 1.275.241.417.408.836.503 1.256a3.441 3.441 0 0 1-.346 2.497 4.735 4.735 0 0 1-.925 1.172 7.685 7.685 0 0 1-1.466 1.069Zm-3.483-1.109 2.43-1.404c.324-.187.596-.368.815-.544.222-.172.397-.34.523-.506.13-.161.217-.319.263-.476a.977.977 0 0 0 .036-.465 1.163 1.163 0 0 0-.156-.447 1.217 1.217 0 0 0-.406-.432 1.096 1.096 0 0 0-.574-.16c-.226-.005-.493.044-.803.149-.307.11-.662.281-1.065.513l-2.431 1.404a7.698 7.698 0 0 0-.833.545 3.577 3.577 0 0 0-.53.51 1.623 1.623 0 0 0-.265.487c-.046.156-.056.31-.03.461.026.152.082.302.167.45.104.181.235.321.392.422.157.101.348.154.574.16.232.007.502-.044.81-.153a6.401 6.401 0 0 0 1.083-.514Zm8.246 9.36-1.847 1.066c-.727.42-1.408.699-2.044.838-.634.143-1.217.159-1.751.047a3.325 3.325 0 0 1-1.426-.658 4.386 4.386 0 0 1-1.079-1.275 4.729 4.729 0 0 1-.514-1.259 3.597 3.597 0 0 1-.065-1.268c.061-.418.2-.829.418-1.232a4.75 4.75 0 0 1 .918-1.169 7.83 7.83 0 0 1 1.473-1.073l1.847-1.066c.732-.423 1.412-.704 2.041-.845.636-.139 1.22-.152 1.754-.041.534.112 1.01.334 1.43.665.42.332.78.757 1.079 1.276.241.416.408.835.503 1.256a3.419 3.419 0 0 1-.346 2.496 4.734 4.734 0 0 1-.925 1.173 7.685 7.685 0 0 1-1.466 1.069Zm-3.483-1.11 2.431-1.403a6.56 6.56 0 0 0 .815-.545c.222-.171.396-.34.523-.506.129-.161.216-.319.262-.475a.982.982 0 0 0 .037-.466 1.197 1.197 0 0 0-.156-.447 1.22 1.22 0 0 0-.407-.432 1.093 1.093 0 0 0-.574-.159c-.225-.006-.493.044-.803.149a6.61 6.61 0 0 0-1.065.513l-2.43 1.403c-.329.19-.607.372-.833.546-.22.176-.396.346-.53.509a1.627 1.627 0 0 0-.266.487 1.04 1.04 0 0 0-.03.462c.026.151.082.301.168.449.104.181.234.322.391.422.157.101.349.154.574.16.233.008.503-.043.81-.153a6.325 6.325 0 0 0 1.083-.514Zm5.85 1.391.534-.308a2.548 2.548 0 0 1 1.193-.356c.411-.015.808.09 1.19.313.383.224.717.584 1.003 1.079.294.509.442.985.445 1.428.003.443-.107.837-.328 1.181-.219.348-.52.633-.904.855l-.535.309a2.518 2.518 0 0 1-1.179.347 2.103 2.103 0 0 1-1.186-.306c-.38-.219-.714-.579-1.003-1.079-.291-.504-.438-.978-.441-1.421a2.221 2.221 0 0 1 .32-1.194 2.52 2.52 0 0 1 .891-.848Zm1.4 1.192-.534.309c-.139.08-.255.184-.348.311a.84.84 0 0 0-.161.427.895.895 0 0 0 .133.488.826.826 0 0 0 .352.352c.14.061.287.081.442.06.157-.017.305-.065.444-.145l.535-.309c.148-.086.268-.192.361-.32a.732.732 0 0 0 .158-.415.821.821 0 0 0-.126-.492.803.803 0 0 0-.798-.419 1.14 1.14 0 0 0-.458.153Zm-4.317 6.891.534-.309c.38-.219.775-.336 1.186-.351.414-.01.812.096 1.194.32.385.228.721.59 1.007 1.086.294.509.441.983.441 1.421.002.443-.107.836-.328 1.18a2.537 2.537 0 0 1-.898.852l-.534.308c-.38.219-.775.337-1.186.352a2.125 2.125 0 0 1-1.182-.299c-.38-.22-.714-.579-1.003-1.079-.291-.505-.439-.981-.445-1.428-.005-.448.1-.848.316-1.201.219-.349.518-.633.898-.852Zm1.404 1.198-.534.309a.94.94 0 0 0-.343.337 1.02 1.02 0 0 0-.145.454.804.804 0 0 0 .109.446c.123.213.251.349.384.408.14.061.282.072.426.032.146-.035.291-.094.435-.177l.534-.309c.144-.082.262-.188.355-.315a.812.812 0 0 0 .032-.908.81.81 0 0 0-.802-.426 1.155 1.155 0 0 0-.451.149Zm6.951-2.235-10.754-.375-.081-1.407 10.754.375.081 1.407Zm10.144 14.219-10.111 5.837-1.404-2.43 4.227-7.209-6.292 3.632-1.407-2.437 10.112-5.838 1.407 2.437-4.227 7.21 6.292-3.633 1.403 2.431Zm.976 12.9-.41.236c-.773.447-1.531.739-2.272.877a5.217 5.217 0 0 1-2.095-.004 4.67 4.67 0 0 1-1.799-.822 5.21 5.21 0 0 1-1.366-1.582 5.298 5.298 0 0 1-.695-1.988 4.74 4.74 0 0 1 .184-1.976 5.328 5.328 0 0 1 1.04-1.823c.493-.568 1.126-1.076 1.899-1.522l.41-.237c.773-.446 1.529-.741 2.267-.883.742-.138 1.44-.137 2.095.003a4.529 4.529 0 0 1 1.799.823 5.213 5.213 0 0 1 1.382 1.591c.374.648.601 1.308.679 1.979a4.502 4.502 0 0 1-.183 1.976c-.203.642-.55 1.25-1.04 1.823s-1.122 1.082-1.895 1.529Zm-1.837-2.236.423-.244c.5-.289.915-.587 1.243-.894.337-.305.586-.616.749-.933.163-.316.239-.634.227-.954a1.928 1.928 0 0 0-.276-.943 1.975 1.975 0 0 0-.69-.731 1.875 1.875 0 0 0-.933-.268c-.353-.012-.745.051-1.178.19-.425.14-.887.355-1.387.643l-.424.245a7.637 7.637 0 0 0-1.251.88 3.573 3.573 0 0 0-.753.925 1.968 1.968 0 0 0-.244.956c.007.323.104.647.291.971.179.31.406.547.679.71.273.163.589.25.946.259.36.015.754-.046 1.182-.182a6.89 6.89 0 0 0 1.396-.63Zm5.114 12.131-1.451-2.514 1.882-1.087 1.451 2.514c.198.343.416.587.655.734.239.146.488.209.748.188.267-.018.53-.102.79-.252.277-.16.505-.36.682-.598a1.43 1.43 0 0 0 .301-.794c.025-.298-.061-.619-.259-.962l-.922-1.597-8.23 4.752-1.407-2.438 10.112-5.838 2.329 4.035c.468.81.722 1.592.763 2.347.043.759-.104 1.446-.441 2.06-.332.611-.829 1.108-1.491 1.49-.653.377-1.313.549-1.981.515-.668-.035-1.308-.267-1.921-.697-.605-.428-1.142-1.048-1.61-1.858Zm9.7 1.372 2.298 3.98c.449.777.723 1.52.823 2.228.1.708.013 1.348-.262 1.92-.272.577-.741 1.057-1.408 1.442-.578.335-1.114.524-1.607.568a3.003 3.003 0 0 1-1.403-.2 4.924 4.924 0 0 1-1.263-.761l-.913-.538-1.928-3.341 1.874-1.1 1.427 2.472c.179.31.383.535.612.675.228.139.474.201.737.185.269-.013.548-.103.835-.269.292-.168.511-.366.658-.593.147-.226.215-.476.206-.749-.006-.267-.096-.552-.27-.853l-.89-1.542-8.23 4.752-1.407-2.438 10.111-5.838Zm-6.916 11.373 3.182-4.818 1.505 2.575-3.075 4.794-.104.06-1.508-2.611Zm13.769.496-10.112 5.838-1.403-2.431 10.111-5.838 1.404 2.431Zm1.688 2.924 1.147 1.986-5.732 6.319 8.338-1.805 1.146 1.986-12.096 2.4-.93-1.611 8.127-9.275Zm-.698-1.209 1.187 2.056-7.53 4.856-2.361 1.364-1.407-2.438 10.111-5.838Zm5.108 8.848 1.191 2.062-10.111 5.838-1.412-2.444 2.361-1.363 7.971-4.093Zm-2.126 15.339-1.875 1.083-3.111-5.39 1.875-1.082 3.111 5.389Zm5.627-9.276-10.112 5.838-1.407-2.438 10.111-5.838 1.408 2.438Zm-1.805 6.144-1.813 1.046-2.71-4.694 1.812-1.047 2.711 4.695Zm4.427-1.603-1.882 1.087-3.124-5.41 1.882-1.086 3.124 5.409Zm2.061 3.57-10.112 5.838-1.403-2.431 10.111-5.838 1.404 2.431Zm.99 1.715 2.298 3.98c.449.778.723 1.52.823 2.228.1.708.013 1.348-.262 1.92-.272.577-.741 1.058-1.408 1.443-.579.334-1.114.523-1.608.567a3 3 0 0 1-1.402-.2 4.929 4.929 0 0 1-1.264-.761l-.912-.538-1.929-3.341 1.874-1.1 1.428 2.472c.179.31.383.535.611.675.229.139.475.201.737.186.27-.014.549-.104.836-.27.291-.168.511-.366.657-.593.147-.226.216-.476.207-.748-.007-.268-.097-.553-.27-.854l-.891-1.541-8.229 4.751-1.407-2.438 10.111-5.838Zm-6.916 11.373 3.182-4.818 1.505 2.575-3.075 4.794-.104.061-1.508-2.612Zm12.358 9.264-.409.237c-.774.446-1.531.738-2.272.876a5.236 5.236 0 0 1-2.095-.003 4.644 4.644 0 0 1-1.799-.823 5.22 5.22 0 0 1-1.367-1.581 5.308 5.308 0 0 1-.694-1.988 4.729 4.729 0 0 1 .183-1.977 5.353 5.353 0 0 1 1.04-1.823c.493-.568 1.126-1.075 1.899-1.522l.41-.236c.773-.447 1.529-.741 2.268-.884.741-.138 1.44-.137 2.095.004a4.52 4.52 0 0 1 1.799.822 5.217 5.217 0 0 1 1.382 1.592c.374.648.6 1.307.679 1.978a4.5 4.5 0 0 1-.183 1.976 5.247 5.247 0 0 1-1.041 1.823c-.49.573-1.122 1.083-1.895 1.529Zm-1.837-2.236.424-.244c.5-.289.914-.587 1.243-.894.336-.305.586-.616.749-.932a1.92 1.92 0 0 0-.049-1.898 1.977 1.977 0 0 0-.691-.731 1.858 1.858 0 0 0-.932-.267c-.353-.013-.745.051-1.178.189a7.588 7.588 0 0 0-1.388.644l-.423.244c-.496.286-.913.58-1.252.88a3.592 3.592 0 0 0-.752.926 1.978 1.978 0 0 0-.245.956c.008.323.105.646.292.97.179.31.405.547.679.71.273.164.588.25.946.26.36.014.754-.047 1.181-.183a6.788 6.788 0 0 0 1.396-.63Zm-74.909-78.552-1.296-2.243 1.884-1.069 1.287 2.229c.267.463.604.79 1.011.981.409.196.882.251 1.418.163.543-.085 1.139-.315 1.787-.689l.438-.253c.486-.28.884-.575 1.193-.883.317-.307.545-.623.683-.95.143-.33.197-.669.162-1.019a2.593 2.593 0 0 0-.358-1.053l-1.299-2.25 1.882-1.087 1.299 2.25a5.6 5.6 0 0 1 .732 2.087c.1.707.053 1.395-.142 2.063a5.106 5.106 0 0 1-.973 1.859c-.454.571-1.04 1.063-1.758 1.478l-.424.244c-.713.412-1.432.673-2.158.784a5.17 5.17 0 0 1-2.093-.08 5.028 5.028 0 0 1-1.854-.901 5.628 5.628 0 0 1-1.421-1.661Zm9.622-6.685-10.112 5.838-1.407-2.438 10.112-5.838 1.407 2.438Zm-.31 18.485-1.875 1.082-3.111-5.389 1.875-1.082 3.111 5.389Zm5.627-9.277-10.112 5.838-1.407-2.437 10.111-5.838 1.408 2.437Zm-1.805 6.145-1.813 1.046-2.71-4.695 1.812-1.046 2.711 4.695Zm4.427-1.603-1.882 1.087-3.124-5.41 1.882-1.087 3.124 5.41Zm-3.786 8.872-1.452-2.514 1.882-1.087 1.452 2.514c.198.343.416.587.655.733.238.146.488.209.748.189.267-.019.53-.103.789-.252.278-.161.505-.36.683-.598.18-.234.28-.498.301-.794.025-.299-.061-.619-.259-.962l-.922-1.597-8.23 4.751-1.407-2.438 10.111-5.837 2.33 4.034c.468.811.722 1.593.762 2.347.043.759-.103 1.446-.44 2.06-.332.612-.83 1.109-1.492 1.491-.652.377-1.313.548-1.981.514-.668-.034-1.308-.266-1.92-.697-.606-.428-1.142-1.047-1.61-1.857Zm9.785 12.73-.409.237c-.774.446-1.531.739-2.272.876a5.236 5.236 0 0 1-2.095-.003 4.644 4.644 0 0 1-1.799-.823 5.22 5.22 0 0 1-1.367-1.581 5.308 5.308 0 0 1-.694-1.988 4.722 4.722 0 0 1 .183-1.976 5.335 5.335 0 0 1 1.04-1.823c.493-.569 1.126-1.076 1.899-1.523l.41-.236c.773-.447 1.529-.741 2.268-.884a5.307 5.307 0 0 1 2.095.004 4.52 4.52 0 0 1 1.799.822 5.229 5.229 0 0 1 1.382 1.592c.374.648.6 1.307.679 1.978a4.5 4.5 0 0 1-.183 1.976 5.247 5.247 0 0 1-1.041 1.823c-.49.573-1.121 1.083-1.895 1.529Zm-1.837-2.235.424-.245c.5-.289.914-.587 1.243-.894.336-.305.586-.616.749-.932a1.922 1.922 0 0 0-.049-1.898 1.985 1.985 0 0 0-.691-.731 1.858 1.858 0 0 0-.932-.267c-.353-.012-.745.051-1.178.189a7.588 7.588 0 0 0-1.388.644l-.423.245a7.665 7.665 0 0 0-1.252.879 3.592 3.592 0 0 0-.752.926 1.98 1.98 0 0 0-.245.956c.008.323.105.646.292.97.179.311.405.547.679.71.273.164.588.25.946.26.36.014.754-.047 1.181-.182a6.842 6.842 0 0 0 1.396-.63Zm4.04-6.379 2.974.116 1.428 2.472-3.299-.678-1.103-1.91Zm-1.035 16.57c.157-.09.285-.195.383-.314.103-.121.174-.276.213-.465.039-.189.046-.434.021-.734a7.993 7.993 0 0 0-.169-1.125 15.75 15.75 0 0 1-.241-1.574 6.595 6.595 0 0 1 .022-1.485c.067-.471.215-.899.444-1.284.233-.388.576-.712 1.03-.974.435-.252.882-.38 1.342-.386.464-.009.919.089 1.365.295.453.207.881.51 1.283.907.407.395.772.873 1.096 1.433.427.74.675 1.468.741 2.183.075.716-.032 1.37-.32 1.963-.281.594-.74 1.075-1.379 1.444l-1.399-2.424c.254-.147.448-.33.581-.548.136-.215.199-.458.19-.73-.01-.273-.105-.566-.287-.881-.176-.306-.371-.536-.584-.691a1.25 1.25 0 0 0-.647-.256 1.005 1.005 0 0 0-.6.133.85.85 0 0 0-.344.366c-.07.157-.112.345-.128.564a4.42 4.42 0 0 0 .031.76c.037.288.092.602.165.942.138.636.222 1.224.249 1.764a5.06 5.06 0 0 1-.102 1.475 3.032 3.032 0 0 1-.522 1.181 3.168 3.168 0 0 1-1.013.891c-.454.262-.907.407-1.361.434a2.9 2.9 0 0 1-1.333-.24c-.43-.19-.84-.478-1.23-.864a6.706 6.706 0 0 1-1.074-1.426 7.095 7.095 0 0 1-.691-1.647 5.224 5.224 0 0 1-.175-1.714 3.662 3.662 0 0 1 .497-1.593c.296-.492.743-.91 1.34-1.255l1.412 2.444a2.405 2.405 0 0 0-.682.551 1.353 1.353 0 0 0-.293.632 1.7 1.7 0 0 0 .061.715c.078.252.199.521.365.808.179.31.367.535.565.674.202.136.403.206.601.208.204 0 .396-.052.577-.157Zm11.052 1.999-10.111 5.838-1.404-2.43 10.112-5.838 1.403 2.43Zm3.697 6.403-10.111 5.838-1.408-2.437 10.112-5.838 1.407 2.437Zm1.756 3.042-1.882 1.087-4.879-8.452 1.882-1.087 4.879 8.452Zm.571 12.199-.41.237c-.773.446-1.53.738-2.272.876a5.217 5.217 0 0 1-2.095-.004 4.655 4.655 0 0 1-1.799-.822 5.217 5.217 0 0 1-1.366-1.581 5.309 5.309 0 0 1-.695-1.989 4.742 4.742 0 0 1 .184-1.976 5.328 5.328 0 0 1 1.04-1.823c.493-.568 1.126-1.076 1.899-1.522l.41-.237c.773-.446 1.529-.74 2.268-.883.741-.138 1.439-.137 2.094.004a4.513 4.513 0 0 1 1.799.822 5.211 5.211 0 0 1 1.382 1.591c.374.649.601 1.308.679 1.979a4.502 4.502 0 0 1-.183 1.976c-.203.642-.55 1.25-1.04 1.823s-1.122 1.083-1.895 1.529Zm-1.837-2.236.423-.244c.5-.289.915-.587 1.244-.894.336-.305.585-.616.748-.932a1.91 1.91 0 0 0-.049-1.898 1.975 1.975 0 0 0-.69-.731 1.865 1.865 0 0 0-.933-.267c-.352-.013-.745.05-1.177.189-.425.14-.888.355-1.388.644l-.424.244c-.495.286-.912.58-1.251.88a3.61 3.61 0 0 0-.753.925 1.97 1.97 0 0 0-.244.956c.007.323.104.647.292.971.179.31.405.547.678.71.273.163.589.25.946.259.36.015.754-.046 1.182-.182a6.89 6.89 0 0 0 1.396-.63Z" fill="#000"/></g><defs><linearGradient id="paint0_linear_94_526" x1="165.435" y1="12.645" x2="315.099" y2="467.866" gradientUnits="userSpaceOnUse"><stop stop-color="#000D1D"/><stop offset=".509" stop-color="#001A42"/><stop offset="1"/></linearGradient><linearGradient id="paint1_linear_94_526" x1="231.853" y1="-8.998" x2="243.255" y2="206.287" gradientUnits="userSpaceOnUse"><stop stop-color="#7508FF"/><stop offset=".458" stop-color="#BD00FF"/><stop offset="1" stop-color="#E7A3FF"/></linearGradient><linearGradient id="paint2_linear_94_526" x1="1.324" y1="169.344" x2="209.142" y2="226.698" gradientUnits="userSpaceOnUse"><stop stop-color="#7508FF"/><stop offset=".458" stop-color="#BD00FF"/><stop offset="1" stop-color="#E7A3FF"/></linearGradient><linearGradient id="paint3_linear_94_526" x1="393.258" y1="436.752" x2="257.42" y2="269.344" gradientUnits="userSpaceOnUse"><stop stop-color="#7508FF"/><stop offset=".458" stop-color="#BD00FF"/><stop offset="1" stop-color="#E7A3FF"/></linearGradient><linearGradient id="paint4_linear_94_526" x1="474.34" y1="155.12" x2="273.103" y2="232.459" gradientUnits="userSpaceOnUse"><stop stop-color="#7508FF"/><stop offset=".458" stop-color="#BD00FF"/><stop offset="1" stop-color="#E7A3FF"/></linearGradient><linearGradient id="paint5_linear_94_526" x1="100.265" y1="446.254" x2="218.103" y2="265.722" gradientUnits="userSpaceOnUse"><stop stop-color="#7508FF"/><stop offset=".458" stop-color="#BD00FF"/><stop offset="1" stop-color="#E7A3FF"/></linearGradient><radialGradient id="paint6_radial_94_526" cx="0" cy="0" r="1" gradientUnits="userSpaceOnUse" gradientTransform="translate(240.024 239.8) scale(239.575)"><stop offset=".679" stop-opacity="0"/><stop offset="1"/></radialGradient><clipPath id="clip0_94_526"><path fill="#fff" d="M0 0h480v480H0z"/></clipPath><filter id="filter0_i_94_526" x=".606" y=".594" width="479.322" height="482.972" filterUnits="userSpaceOnUse" color-interpolation-filters="sRGB"><feFlood flood-opacity="0" result="BackgroundImageFix"/><feBlend in="SourceGraphic" in2="BackgroundImageFix" result="shape"/><feColorMatrix in="SourceAlpha" values="0 0 0 0 0 0 0 0 0 0 0 0 0 0 0 0 0 0 127 0" result="hardAlpha"/><feOffset dy="3.65"/><feGaussianBlur stdDeviation="10.036"/><feComposite in2="hardAlpha" operator="arithmetic" k2="-1" k3="1"/><feColorMatrix values="0 0 0 0 0 0 0 0 0 0 0 0 0 0 0 0 0 0 0.25 0"/><feBlend in2="shape" result="effect1_innerShadow_94_526"/></filter></defs></svg>